<svg width="313" height="58" viewBox="0 0 313 58" fill="none" xmlns="http://www.w3.org/2000/svg">
<path d="M9.52502 0.968384H47.4831C52.7247 0.968384 56.9734 5.21695 56.9734 10.4584V48.4152C56.9734 53.6567 52.7247 57.9052 47.4831 57.9052H9.52502C4.28338 57.9052 0.034668 53.6567 0.034668 48.4152V10.4584C0.034668 5.21695 4.28338 0.968384 9.52502 0.968384Z" fill="#F05323"/>
<g filter="url(#filter0_d_1439_1855)">
<path d="M14.2407 35.2674C13.7667 36.3988 13.6566 37.5653 13.8068 38.6783C13.9603 39.8397 14.4009 40.9411 15.005 41.8889C15.6041 42.8301 16.3667 43.6227 17.1744 44.1701C18.0388 44.7575 18.9633 45.0712 19.8077 45.0011C20.5987 46.3361 21.6083 47.1454 22.6613 47.5142C23.5558 47.8263 24.4786 47.8196 25.3214 47.5492C26.1691 47.2772 26.9401 46.7366 27.5258 45.9806C28.2067 45.1046 28.6389 43.9431 28.6523 42.5831L28.941 16.0387C28.9543 14.8256 28.7007 13.7759 28.2751 12.9633C27.9063 12.2607 27.4074 11.7351 26.8366 11.4297C26.2592 11.1193 25.6101 11.0376 24.9509 11.2311C24.3935 11.3947 23.8328 11.7535 23.3055 12.3375C22.92 12.1873 22.5028 12.1406 22.089 12.1873C21.5366 12.2524 20.9842 12.4827 20.5086 12.8565C20.028 13.2336 19.6208 13.7543 19.3672 14.3967C19.1986 14.8239 19.0968 15.3028 19.0868 15.8235C18.4727 15.957 17.927 16.2991 17.4865 16.763C17.1126 17.1568 16.8139 17.6457 16.6137 18.1714C16.4101 18.7037 16.31 19.2744 16.3333 19.8301C16.3517 20.2256 16.4318 20.6144 16.5836 20.9748C16.2482 21.0966 15.9378 21.2635 15.6591 21.4671C15.0601 21.906 14.5995 22.5134 14.3141 23.2076C14.0271 23.9084 13.9169 24.6944 14.0171 25.4804C14.0671 25.8725 14.1706 26.263 14.3291 26.6451C14.1873 26.802 14.0521 26.9705 13.9269 27.1491C13.2127 28.157 12.7855 29.462 12.7321 30.8036C12.6787 32.1503 13.0008 33.5336 13.7901 34.6901C13.9269 34.8886 14.0771 35.0805 14.2423 35.2674H14.2407Z" fill="#143156"/>
<path d="M14.2407 35.2674C13.7667 36.3988 13.6566 37.5653 13.8068 38.6783C13.9603 39.8397 14.4009 40.9411 15.005 41.8889C15.6041 42.8301 16.3667 43.6227 17.1744 44.1701C18.0388 44.7575 18.9633 45.0712 19.8077 45.0011C20.5987 46.3361 21.6083 47.1454 22.6613 47.5142C23.5558 47.8263 24.4786 47.8196 25.3214 47.5492C26.1691 47.2772 26.9401 46.7366 27.5258 45.9806C28.2067 45.1046 28.6389 43.9431 28.6523 42.5831L28.941 16.0387C28.9543 14.8256 28.7007 13.7759 28.2751 12.9633C27.9063 12.2607 27.4074 11.7351 26.8366 11.4297C26.2592 11.1193 25.6101 11.0376 24.9509 11.2311C24.3935 11.3947 23.8328 11.7535 23.3055 12.3375C22.92 12.1873 22.5028 12.1406 22.089 12.1873C21.5366 12.2524 20.9842 12.4827 20.5086 12.8565C20.028 13.2336 19.6208 13.7543 19.3672 14.3967C19.1986 14.8239 19.0968 15.3028 19.0868 15.8235C18.4727 15.957 17.927 16.2991 17.4865 16.763C17.1126 17.1568 16.8139 17.6457 16.6137 18.1714C16.4101 18.7037 16.31 19.2744 16.3333 19.8301C16.3517 20.2256 16.4318 20.6144 16.5836 20.9748C16.2482 21.0966 15.9378 21.2635 15.6591 21.4671C15.0601 21.906 14.5995 22.5134 14.3141 23.2076C14.0271 23.9084 13.9169 24.6944 14.0171 25.4804C14.0671 25.8725 14.1706 26.263 14.3291 26.6451C14.1873 26.802 14.0521 26.9705 13.9269 27.1491C13.2127 28.157 12.7855 29.462 12.7321 30.8036C12.6787 32.1503 13.0008 33.5336 13.7901 34.6901C13.9269 34.8886 14.0771 35.0805 14.2423 35.2674H14.2407Z" stroke="#143156" stroke-width="0.166872" stroke-miterlimit="10"/>
</g>
<path d="M17.2313 21.7741L20.2184 26.9105L23.4609 20.4542L17.2313 21.7741ZM24.2569 19.231L27.3208 15.71L27.3241 15.705L27.7313 15.2478L28.1568 15.7767L27.7496 16.2323L24.3136 20.1805L21.1279 26.5233L27.7279 22.8655L27.9899 23.5263L20.6957 27.5679L23.8497 30.7318L27.8631 31.7398L27.798 32.0969L27.9966 32.3755L22.528 37.7805L27.8297 40.5907L27.5744 41.2548L22.0975 38.3512L19.7378 44.8442L19.1671 44.5589L21.5318 38.0509L21.48 37.8623L17.9723 35.3659L17.5801 35.2257L14.2425 35.738L14.1624 35.0138L17.2764 34.5365L14.0189 27.1391L14.2943 26.9722L14.316 26.6084L19.5443 27.0423L16.447 21.7157L16.7023 21.5088L16.6489 21.15L23.1805 19.7667L18.8016 16.7863L19.112 16.1539L23.6228 19.2227L22.5447 13.2002L23.1505 13.05L24.2569 19.2243V19.231ZM21.984 37.3734L27.1155 32.3021L23.7579 31.4594L18.4862 34.8836L21.984 37.3717V37.3734ZM19.8313 27.8032L14.8249 27.3877L17.7537 34.0393L19.8313 27.8032ZM18.3945 34.111L23.1672 31.0089L20.3653 28.1987L18.3945 34.111Z" fill="white" stroke="white" stroke-width="0.166872" stroke-miterlimit="10"/>
<g filter="url(#filter1_d_1439_1855)">
<path d="M44.7645 34.2711C45.5405 33.1364 45.8576 31.7781 45.8058 30.4531C45.7541 29.1365 45.3319 27.8532 44.6327 26.8637C44.5075 26.6885 44.3757 26.5233 44.2372 26.3681C44.3924 25.9943 44.4925 25.6088 44.5442 25.225C44.6427 24.4507 44.5326 23.6798 44.2505 22.9922C43.9702 22.3097 43.5196 21.7123 42.9305 21.2818C42.6552 21.0799 42.3515 20.9163 42.0227 20.7962C42.1696 20.4424 42.2497 20.062 42.2664 19.6732C42.2914 19.1275 42.1913 18.5651 41.9927 18.0428C41.7958 17.5272 41.5004 17.0482 41.1333 16.6594C40.7027 16.2039 40.1637 15.8685 39.5629 15.7366C39.5513 15.226 39.4528 14.7571 39.2859 14.3366C39.0373 13.7058 38.6384 13.1918 38.1662 12.8214C37.6972 12.4559 37.1549 12.2273 36.6142 12.1656C36.2054 12.1188 35.7965 12.1656 35.4177 12.3124C34.9004 11.7384 34.3497 11.3846 33.8006 11.2261C33.1532 11.0358 32.5173 11.1159 31.9483 11.4196C31.3876 11.7217 30.8986 12.2373 30.5365 12.9282C30.1193 13.7242 29.869 14.7554 29.8823 15.9469L30.1644 42.0207C30.1794 43.359 30.6016 44.4988 31.2708 45.3598C31.8465 46.1007 32.6041 46.6314 33.4368 46.8984C34.2662 47.1654 35.1724 47.1721 36.0518 46.8633C37.0848 46.5029 38.0777 45.7086 38.8537 44.3953C39.6848 44.4654 40.5926 44.1583 41.442 43.581C42.233 43.042 42.9839 42.2627 43.573 41.3399C44.1654 40.4087 44.5976 39.3257 44.7495 38.186C44.8964 37.0913 44.7879 35.9465 44.3223 34.8335C44.4858 34.6516 44.6344 34.4614 44.7662 34.2661L44.7645 34.2711Z" fill="white"/>
<path d="M44.7645 34.2711C45.5405 33.1364 45.8576 31.7781 45.8058 30.4531C45.7541 29.1365 45.3319 27.8532 44.6327 26.8637C44.5075 26.6885 44.3757 26.5233 44.2372 26.3681C44.3924 25.9943 44.4925 25.6088 44.5442 25.225C44.6427 24.4507 44.5326 23.6798 44.2505 22.9922C43.9702 22.3097 43.5196 21.7123 42.9305 21.2818C42.6552 21.0799 42.3515 20.9163 42.0227 20.7962C42.1696 20.4424 42.2497 20.062 42.2664 19.6732C42.2914 19.1275 42.1913 18.5651 41.9927 18.0428C41.7958 17.5272 41.5004 17.0482 41.1333 16.6594C40.7027 16.2039 40.1637 15.8685 39.5629 15.7366C39.5513 15.226 39.4528 14.7571 39.2859 14.3366C39.0373 13.7058 38.6384 13.1918 38.1662 12.8214C37.6972 12.4559 37.1549 12.2273 36.6142 12.1656C36.2054 12.1188 35.7965 12.1656 35.4177 12.3124C34.9004 11.7384 34.3497 11.3846 33.8006 11.2261C33.1532 11.0358 32.5173 11.1159 31.9483 11.4196C31.3876 11.7217 30.8986 12.2373 30.5365 12.9282C30.1193 13.7242 29.869 14.7554 29.8823 15.9469L30.1644 42.0207C30.1794 43.359 30.6016 44.4988 31.2708 45.3598C31.8465 46.1007 32.6041 46.6314 33.4368 46.8984C34.2662 47.1654 35.1724 47.1721 36.0518 46.8633C37.0848 46.5029 38.0777 45.7086 38.8537 44.3953C39.6848 44.4654 40.5926 44.1583 41.442 43.581C42.233 43.042 42.9839 42.2627 43.573 41.3399C44.1654 40.4087 44.5976 39.3257 44.7495 38.186C44.8964 37.0913 44.7879 35.9465 44.3223 34.8335C44.4858 34.6516 44.6344 34.4614 44.7662 34.2661L44.7645 34.2711Z" stroke="white" stroke-width="0.166872" stroke-miterlimit="10"/>
</g>
<path d="M80.8721 38.47V22.7709H77.1062V20.9614L80.9699 20.4723L81.7035 13.6742H84.2955V20.4723H89.5775V22.7709H84.2955V38.3722C84.2955 40.4752 84.8824 40.9154 86.2029 40.9154C87.6701 40.9154 88.8928 40.3774 89.7731 39.7416L90.4578 42.3337C89.3819 42.8228 87.4745 43.5075 85.3226 43.5075C81.1655 43.5075 80.8721 40.8665 80.8721 38.47ZM111.12 19.7387C116.842 19.7387 120.119 22.7709 120.119 28.0529C120.119 29.1288 119.972 30.4493 119.679 30.9873H103.197V31.4763C103.197 36.4649 105.74 40.9643 111.169 40.9643C114.299 40.9643 117.282 39.3993 119.092 38.1277L119.679 40.9154C117.967 41.9913 114.69 43.5564 110.778 43.5564C103.49 43.5564 99.5289 38.0299 99.5289 31.7209C99.5289 25.2652 103.637 19.7387 111.12 19.7387ZM110.973 22.4775C106.718 22.4775 104.371 25.0206 103.539 28.3952H116.891C116.94 28.1018 116.94 27.8083 116.94 27.5149C116.94 24.1892 114.103 22.4775 110.973 22.4775ZM135.896 6.77834V42.9695H132.473V6.77834H135.896ZM159.777 19.7387C165.499 19.7387 168.775 22.7709 168.775 28.0529C168.775 29.1288 168.629 30.4493 168.335 30.9873H151.854V31.4763C151.854 36.4649 154.397 40.9643 159.825 40.9643C162.956 40.9643 165.939 39.3993 167.748 38.1277L168.335 40.9154C166.624 41.9913 163.347 43.5564 159.434 43.5564C152.147 43.5564 148.186 38.0299 148.186 31.7209C148.186 25.2652 152.294 19.7387 159.777 19.7387ZM159.63 22.4775C155.375 22.4775 153.027 25.0206 152.196 28.3952H165.548C165.596 28.1018 165.596 27.8083 165.596 27.5149C165.596 24.1892 162.76 22.4775 159.63 22.4775Z" fill="#fff"/>

<path d="M192.916 19.7387C199.567 19.7387 202.795 25.3141 202.795 31.5253C202.795 37.981 199.323 43.5564 192.378 43.5564C188.025 43.5564 185.091 41.4045 184.259 38.6168V55.6853H180.836V20.4723H183.526L183.917 24.6783H184.113C185.678 22.2818 188.759 19.7387 192.916 19.7387ZM192.036 22.6242C188.906 22.6242 186.069 24.3848 184.259 27.5638V34.7531C185.433 38.47 188.955 40.6709 192.329 40.6709C196.877 40.6709 199.176 36.7094 199.176 31.7698C199.176 27.0258 197.024 22.6242 192.036 22.6242ZM231.807 42.9695H229.117L228.725 38.9591H228.53C226.965 41.4045 223.15 43.5564 219.433 43.5564C215.178 43.5564 212.977 40.7198 212.977 36.9539C212.977 29.4712 221.634 28.6887 226.182 28.6887H228.383V28.1018C228.383 25.6564 227.649 24.4827 226.378 23.6023C225.253 22.8687 224.128 22.6242 222.074 22.6242C219.335 22.6242 217.379 23.4067 215.423 24.5805L214.64 21.6461C216.841 20.3745 219.433 19.7387 222.465 19.7387C224.862 19.7387 227.111 20.1299 228.725 21.157C230.584 22.3307 231.807 24.4827 231.807 27.6616V42.9695ZM220.46 40.6709C223.101 40.6709 226.525 38.9102 228.383 35.7313V31.1829H227.943C222.661 31.1829 216.596 31.672 216.596 36.7583C216.596 39.3015 218.113 40.6709 220.46 40.6709ZM246.09 38.47V22.7709H242.324V20.9614L246.187 20.4723L246.921 13.6742H249.513V20.4723H254.795V22.7709H249.513V38.3722C249.513 40.4752 250.1 40.9154 251.421 40.9154C252.888 40.9154 254.11 40.3774 254.991 39.7416L255.675 42.3337C254.599 42.8228 252.692 43.5075 250.54 43.5075C246.383 43.5075 246.09 40.8665 246.09 38.47ZM285.483 42.9695H282.06V28.1018C282.06 24.1403 280.103 22.6242 277.365 22.6242C274.088 22.6242 270.86 24.7761 269.686 28.5419V42.9695H266.263V6.77834H269.686V24.6783C270.518 21.9395 273.501 19.7387 277.854 19.7387C282.011 19.7387 285.483 21.7439 285.483 27.6616V42.9695Z" fill="#F05323"/>
<defs>
<filter id="filter0_d_1439_1855" x="9.64487" y="9.24454" width="21.1789" height="41.5874" filterUnits="userSpaceOnUse" color-interpolation-filters="sRGB">
<feFlood flood-opacity="0" result="BackgroundImageFix"/>
<feColorMatrix in="SourceAlpha" type="matrix" values="0 0 0 0 0 0 0 0 0 0 0 0 0 0 0 0 0 0 127 0" result="hardAlpha"/>
<feOffset dx="-0.599638" dy="0.599638"/>
<feGaussianBlur stdDeviation="1.19928"/>
<feComposite in2="hardAlpha" operator="out"/>
<feColorMatrix type="matrix" values="0 0 0 0 0.0784314 0 0 0 0 0.192157 0 0 0 0 0.337255 0 0 0 1 0"/>
<feBlend mode="multiply" in2="BackgroundImageFix" result="effect1_dropShadow_1439_1855"/>
<feBlend mode="normal" in="SourceGraphic" in2="effect1_dropShadow_1439_1855" result="shape"/>
</filter>
<filter id="filter1_d_1439_1855" x="26.8001" y="9.24112" width="20.8934" height="40.9374" filterUnits="userSpaceOnUse" color-interpolation-filters="sRGB">
<feFlood flood-opacity="0" result="BackgroundImageFix"/>
<feColorMatrix in="SourceAlpha" type="matrix" values="0 0 0 0 0 0 0 0 0 0 0 0 0 0 0 0 0 0 127 0" result="hardAlpha"/>
<feOffset dx="-0.599638" dy="0.599638"/>
<feGaussianBlur stdDeviation="1.19928"/>
<feComposite in2="hardAlpha" operator="out"/>
<feColorMatrix type="matrix" values="0 0 0 0 0.0784314 0 0 0 0 0.192157 0 0 0 0 0.337255 0 0 0 1 0"/>
<feBlend mode="multiply" in2="BackgroundImageFix" result="effect1_dropShadow_1439_1855"/>
<feBlend mode="normal" in="SourceGraphic" in2="effect1_dropShadow_1439_1855" result="shape"/>
</filter>
</defs>
</svg>
