<?xml version="1.0" encoding="UTF-8"?>
<svg width="256px" height="256px" viewBox="0 0 256 256" version="1.1" xmlns="http://www.w3.org/2000/svg" xmlns:xlink="http://www.w3.org/1999/xlink">
    <!-- Generator: Sketch 59.1 (86144) - https://sketch.com -->
<title>r3</title>
    <g id="Page-1" stroke="none" stroke-width="1" fill="none" fill-rule="evenodd">
        <g id="r3">
            <rect id="Rectangle" x="0" y="0" width="256" height="256"></rect>
            <path d="M130.692933,21.4054632 C148.326515,21.6073982 163.90968,24.8383574 178.262597,32.1080159 C184.003762,34.9351052 189.334845,38.5699345 194.255845,42.6086336 C197.536511,45.2337881 197.126427,49.8782921 193.435678,52.0995765 C189.744928,54.522796 184.823928,54.320861 181.133179,51.4937716 C178.262597,49.4744222 175.597055,47.2531375 172.521429,45.4357229 C157.963472,36.7525199 142.175266,33.7234955 125.361851,34.9351052 C115.519852,35.5409101 106.292977,37.9641296 97.4761861,42.2047637 C92.3501454,44.6279832 87.4291458,47.8589424 82.9182295,51.4937716 C80.8678131,53.1092513 78.8173966,54.724731 76.1518552,55.1286009 C72.8711889,55.5324708 69.7955642,54.9266659 67.3350644,52.5034464 C64.8745645,50.2821619 64.8745645,47.0512027 67.1300226,44.6279832 C68.155231,43.6183083 69.3854807,42.6086336 70.6157307,41.5989588 C77.3821051,36.34865 84.5585628,31.9060809 92.3501454,28.6751217 C102.397186,25.0402924 112.034143,22.8190079 122.286227,22.0112681 C125.566893,21.6073982 128.847558,21.4054632 130.692933,21.4054632 Z" id="Path" fill="#0096E7" fill-rule="nonzero"></path>
            <path d="M132.128225,45.2337881 C146.891223,45.2337881 160.013889,49.676357 171.29118,59.1673 C174.981929,62.1963244 174.571846,66.8408284 170.676055,69.4659828 C166.575222,72.0911372 161.244139,71.8892022 157.143305,69.0621128 C156.118098,68.2543731 154.887847,67.4466332 153.86264,66.6388933 C140.739974,57.1479504 121.876143,57.5518204 109.163561,67.4466332 C107.72827,68.658243 106.292977,69.6679177 104.652644,70.8795274 C100.756853,73.5046819 94.6056038,73.1008119 91.1198955,70.2737226 C88.0442707,67.4466332 87.8392292,63.4079341 90.9148539,60.7827796 C97.0661038,55.7344057 103.627435,51.2918367 111.213977,48.6666823 C118.185393,46.4453978 124.951767,45.2337881 132.128225,45.2337881 Z" id="Path" fill="#0096E7" fill-rule="nonzero"></path>
            <path d="M131.5131,71.4853323 C142.175266,71.6872673 148.326515,80.7743403 148.121474,88.8517386 C147.916432,98.5446163 140.12485,106.01621 130.897975,105.61234 C121.261018,105.20847 114.289601,97.7368774 114.494643,87.8420636 C114.699685,78.7549908 122.286227,71.2833973 131.5131,71.4853323 Z" id="Path" fill="#0096E7" fill-rule="nonzero"></path>
            <path d="M196.317929,165.227211 C196.522211,156.646811 196.726495,148.066411 196.930777,139.276733 C195.909363,139.276733 194.887948,139.276733 193.866532,139.276733 C173.029662,139.276733 152.192793,139.276733 131.355923,139.276733 C130.538791,139.276733 128.904526,139.276733 127.065979,138.230343 C124.818866,136.974674 123.388885,135.091172 122.571753,133.207669 C122.571753,130.068499 122.571753,126.929328 122.571753,123.999436 C122.571753,123.790157 122.776035,123.371602 122.980318,123.162324 C124.001734,120.650987 126.044564,119.18604 127.474545,118.348928 C156.482737,118.348928 185.490928,118.139651 214.499119,118.139651 C214.907685,118.348928 215.724818,118.767485 216.337666,119.395319 C216.746232,119.813874 217.154799,120.232431 217.563365,120.860265 C218.380497,121.906654 218.789063,122.325211 218.993346,122.953045 C219.401912,123.790157 219.401912,124.62727 219.401912,125.673659 C219.401912,152.46125 219.401912,179.039561 219.401912,205.827152 C219.401912,211.477659 217.971931,216.709609 214.703402,221.313727 C211.23059,226.127122 206.532081,228.847736 201.016439,230.312683 C195.09223,231.986907 190.189438,231.986907 188.963739,231.986907 C178.341021,231.777629 157.504151,231.777629 129.721658,231.986907 C129.10881,231.986907 128.291678,231.777629 127.474545,231.359074 C125.227432,230.521961 123.797451,228.847736 123.388885,227.801346 C123.184601,227.173512 123.184601,226.3364 122.980318,225.708566 C122.776035,222.778673 122.776035,220.058059 122.571753,217.128167 C122.980318,216.081776 123.388885,215.035385 123.797451,213.988995 C124.206016,213.361162 124.818866,212.524049 126.044564,211.686937 C127.270263,211.059103 128.291678,210.849824 128.904526,210.849824 C138.097264,210.849824 147.085717,210.849824 156.278454,210.640546 C165.471191,210.640546 174.663927,210.640546 183.856663,210.431269 C186.920909,210.640546 189.372306,210.221991 191.00657,209.803434 C194.070816,208.966323 194.887948,208.12921 195.09223,207.919932 C196.726495,206.036429 196.726495,203.525093 196.522211,202.687981 C196.522211,196.828196 196.522211,190.968411 196.522211,185.108625 C195.70508,185.108625 194.683664,185.108625 193.866532,184.899348 C159.3427,185.73646 134.215886,185.945737 130.334508,185.527181 C129.517376,185.527181 127.883111,185.317903 126.044564,184.062235 C124.4103,183.015845 123.388885,181.34162 122.776035,180.085952 C122.776035,176.946781 122.776035,173.80761 122.776035,170.668439 C122.571753,170.040605 122.776035,169.412771 122.776035,168.994216 C123.388885,166.064323 126.657413,164.599377 127.065979,164.390098 C150.149963,165.017933 173.233946,165.227211 196.317929,165.227211 Z" id="Path" fill="#0096E7" fill-rule="nonzero"></path>
            <path d="M69.8667289,122.325211 C69.8667289,125.045826 69.8667289,127.766441 69.8667289,130.696333 C71.7052761,128.394275 74.7695217,125.045826 79.0594655,122.53449 C79.8765977,122.115933 82.327994,120.860265 85.5965227,119.813874 C87.6393531,119.18604 89.0693343,118.976762 90.2950325,118.767485 C92.3378628,118.348928 95.4021086,118.139651 98.8749202,118.348928 C100.713467,118.558207 102.756298,118.767485 104.594845,118.767485 C104.594845,126.092216 104.799129,133.626226 104.799129,140.950957 C103.777713,141.369514 102.756298,141.997348 101.734883,142.415904 C98.6706365,142.206625 96.2192408,142.415904 94.3806938,142.415904 C90.0907495,142.625182 87.8436361,142.625182 84.9836736,143.462294 C83.3494093,143.88085 81.1022959,144.508684 78.6508995,146.182908 C74.5652387,148.903524 72.7266914,152.46125 72.3181252,153.298362 C70.683861,156.437532 70.479578,159.367426 70.0710118,162.715874 C69.8667289,165.436488 69.8667289,167.529269 69.8667289,167.947825 C70.0710118,172.761221 70.0710118,191.805522 69.6624458,229.057015 C68.8453136,230.103404 68.0281815,231.149795 67.2110494,232.196186 C67.0067664,232.196186 66.8024833,232.405463 66.3939173,232.405463 C60.061143,232.405463 53.7283689,232.405463 47.3955948,232.405463 C46.5784626,231.359074 45.7613304,230.312683 44.9441983,229.475571 C44.9441983,229.057015 44.7399152,228.847736 44.7399152,228.429181 C44.7399152,192.851913 44.7399152,157.274645 44.7399152,121.697377 C45.5570474,121.069543 46.5784626,120.232431 47.3955948,119.604597 C53.7283689,119.604597 60.2654261,119.395319 66.5982002,119.395319 C67.8238985,120.44171 68.8453136,121.278821 69.8667289,122.325211 Z" id="Path" fill="#0096E7" fill-rule="nonzero"></path>
        </g>
    </g>
</svg>