<?xml version="1.0" encoding="UTF-8"?>
<svg width="386px" height="96px" viewBox="0 0 386 96" version="1.1" xmlns="http://www.w3.org/2000/svg" xmlns:xlink="http://www.w3.org/1999/xlink">
    <!-- Generator: Sketch 59.1 (86144) - https://sketch.com -->
    <title>remoteit</title>
    <desc>Created with Sketch.</desc>
    <g id="Page-1" stroke="none" stroke-width="1" fill="none" fill-rule="evenodd">
<g id="remoteit" fill="#fff" fill-rule="nonzero">
            <path d="M132.24,55.24 C129.57,55.24 126.89,55.24 124.08,55.24 C124.08,55.81 124.02,56.31 124.02,56.81 C124.02,68.49 124.02,81.46 124.02,93.14 L122.09,95.38 L116.73,95.38 L114.61,93.2 L114.61,55.2 L103.73,55.2 L103.67,93.34 L101.67,95.39 L96.37,95.39 L94.3098725,93.46 L94.3098725,47.28 C94.301657,46.2688798 94.703083,45.2974672 95.4227718,44.5871985 C96.1424606,43.8769297 97.1190775,43.4883366 98.13,43.51 L132.08,43.51 C137.122246,43.4197586 141.62462,46.6531712 143.15,51.46 C143.95347,53.594563 144.389637,55.8497837 144.44,58.13 C144.53,66.65 144.57,75.13 144.62,83.68 C144.62,86.4 144.62,93.34 144.62,93.34 L142.54,95.34 L137.22,95.34 L134.98,93.26 L134.98,62.77 C135.006738,61.3263527 134.929874,59.8826471 134.75,58.45 C134.35,56.85 133.73,55.25 132.24,55.24 Z" id="Path"></path>
            <path d="M48.73,53.01 L48.73,64.66 L81.21,64.76 L83.48,67.07 L83.39,72.13 L81.53,74.01 L81.53,74.01 C71.1633333,74.1433333 60.7633333,74.2133333 50.33,74.22 L48.73,74.22 C48.73,74.7 48.65,75.01 48.65,75.33 C48.65,76.9 48.65,77.94 48.65,78.7 C48.65,79.85 48.71,80.43 48.71,80.82 C48.71,81.99 48.71,82.94 48.63,83.54 C48.7001646,83.8043011 48.815167,84.0546006 48.97,84.28 C49.1787859,84.5492894 49.4366584,84.7766245 49.73,84.95 C50.0550568,85.2097887 50.4196911,85.4157395 50.81,85.56 C51.2047622,85.7017888 51.620564,85.7761598 52.04,85.78 C53.0466667,85.8333333 54.0466667,85.87 55.04,85.89 L81.23,85.95 L83.23,88.02 C83.23,88.24 83.29,88.57 83.32,89.02 C83.35,89.47 83.4,90.07 83.4,91.12 C83.4,91.8 83.4,92.62 83.31,93.54 L81.23,95.28 L80.9,95.34 L54.26,95.41 L50.4,95.3 C48.8347814,95.2834439 47.2846085,94.9923634 45.82,94.44 C43.7311265,93.7007592 41.8844143,92.4039107 40.48,90.69 C39.2479928,89.1477081 38.4197083,87.3227327 38.07,85.38 L38.07,82.95 L38,45.53 L40.34,43.4 L81.22,43.58 L83.35,45.58 C83.35,45.9466667 83.35,46.3133333 83.35,46.68 C83.35,48.1466667 83.35,49.6066667 83.35,51.06 L81.21,52.85 C70.9233333,52.97 60.61,53.0333333 50.27,53.04 L48.73,53.01 Z" id="Path"></path>
            <path d="M284.56,64.61 L284.8,52.78 L283.34,52.78 C273.58,52.78 263.83,52.78 254.07,52.78 C253.377083,52.790703 252.691555,52.6364593 252.07,52.33 C251.144029,51.8235732 250.407195,51.0305991 249.97,50.07 L249.97,45.82 C250.016044,45.6805995 250.069452,45.5437404 250.13,45.41 C250.590779,44.4782831 251.337016,43.7180316 252.26,43.24 L292.98,43.13 C293.305875,43.2743099 293.606388,43.4701496 293.87,43.71 C294.096826,43.9290662 294.301176,44.1702662 294.48,44.43 C294.745806,44.7328281 294.971034,45.0689893 295.15,45.43 C295.303731,45.8249656 295.378476,46.2462559 295.37,46.67 C295.37,58.8633333 295.37,71.06 295.37,83.26 C295.431579,85.7956697 294.662517,88.2819532 293.18,90.34 C291.580615,92.4360916 289.299167,93.9075368 286.73,94.5 C284.880487,95.0160243 282.970133,95.281725 281.05,95.29 C276.05,95.17 266.34,95.23 253.34,95.29 C252.969788,95.253225 252.606387,95.1657397 252.26,95.03 C251.467344,94.7089632 250.78842,94.1588603 250.31,93.45 L250.1,92.5 L249.94,88.61 L250.48,87.2 C251.028822,86.391508 251.907737,85.8678215 252.88,85.77 L265.73,85.72 L278.67,85.67 C279.783097,85.7280406 280.898636,85.6201939 281.98,85.35 C282.702913,85.249944 283.380757,84.9405689 283.93,84.46 C284.471382,83.7963115 284.717143,82.9397632 284.61,82.09 L284.61,74.04 L283.29,73.95 L253.73,73.73 C253.188382,73.8628172 252.620465,73.8420397 252.09,73.67 C251.19475,73.3354012 250.489968,72.626967 250.16,71.73 L250.16,66.36 L252.16,64.52 L284.56,64.61 Z" id="Path"></path>
            <path d="M168.06,93.21 C162.616004,90.4130369 158.306029,85.8204399 155.86,80.21 C155.35,79.03 150.34,66.9 157.64,55.44 C165.07,43.77 178.53,43.36 179.97,43.34 C180.97,43.34 195.54,43.34 203.24,55.73 C208.886963,64.9342804 208.441139,76.6322206 202.11,85.38 C193.94,96.51 178.57,98.42 168.06,93.21 Z M179.79,52.49 C170.61,52.77 163.79,61.17 163.93,69.94 C164.09,78.56 171,86.56 179.93,86.74 C189.25,86.92 196.71,78.56 196.63,69.48 C196.55,60.4 189.12,52.21 179.79,52.49 Z" id="Shape"></path>
            <path d="M357.49,44.95 L358.36,44.14 L364.03,43.95 L364.03,42.85 L364.03,34.65 L364.03,33 L365.25,31.95 L373.48,32.07 L374.53,33.07 L374.63,44.07 L376.19,44.16 C378.558355,44.2848696 380.931645,44.2848696 383.3,44.16 L384.62,45.5 L384.62,53.31 C384.270327,53.6054193 383.90298,53.87926 383.52,54.13 L383.27,54.29 L374.58,54.29 L374.49,55.66 L374.49,78.95 L374.61,80.63 C374.527901,81.9514841 375.024232,83.2434026 375.97,84.17 C376.574504,84.616584 377.291105,84.8866074 378.04,84.95 C379.954407,85.2573778 381.905593,85.2573778 383.82,84.95 L383.82,84.95 L385.14,86.03 L385,94.56 C382.131162,95.2716995 379.162365,95.4914851 376.22,95.21 C375.83,95.21 375.27,95.11 374.6,95 C372.49,94.63 369.43,94.1 367.22,91.94 C365.74805,90.3384182 364.781057,88.3383438 364.44,86.19 C363.989735,84.3698141 363.851107,82.4864974 364.03,80.62 L363.78,54.16 L358.25,54.16 L357.58,53.33 L357.49,44.95 Z" id="Path"></path>
            <path d="M240.19,45.34 L240.34,53.14 L239.25,54.22 L230.44,54.22 L230.44,80.43 C230.457009,81.0893745 230.554395,81.7442115 230.73,82.38 C230.824816,82.9196022 231.04393,83.4297282 231.37,83.87 C231.93372,84.3995226 232.659436,84.7236286 233.43,84.79 C234.458978,84.975244 235.506546,85.0356806 236.55,84.97 C237.32,84.97 238.32,84.97 239.49,84.88 L240.79,86.12 L240.79,94.57 L237.79,95.18 L230.85,95.18 C229.290468,95.0884945 227.758217,94.7299546 226.32,94.12 C225.384796,93.7582027 224.508557,93.2594203 223.72,92.64 C222.220502,91.3404331 221.109564,89.6515317 220.51,87.76 C220.084196,86.6520227 219.792131,85.4971913 219.64,84.32 C219.64,82.88 219.64,81.4433333 219.64,80.01 C219.64,71.4233333 219.64,62.84 219.64,54.26 L214.15,54.26 L212.89,53.2 L212.89,45.08 L213.99,44.02 L214.72,44.02 L218.48,44.02 L219.58,44.02 L219.58,33.1 L220.91,32.1 L229.13,32.1 L230.23,33.2 L230.36,44.2 L237.75,44.2 L239.09,44.2 L240.19,45.34 Z" id="Path"></path>
            <path d="M11.64,44.95 L11.64,48.73 C12.8216662,47.2041752 14.3017545,45.935042 15.99,45 C16.9742844,44.4732699 18.0139802,44.0573916 19.09,43.76 C19.8155336,43.5597395 20.5539268,43.409388 21.3,43.31 C22.624265,43.1191359 23.9627909,43.0455169 25.3,43.09 L27.95,43.31 L28.08,53.49 L26.62,54.18 C25.21,54.12 24.04,54.18 23.18,54.18 C21.7041252,54.1605892 20.2319307,54.3320091 18.8,54.69 C17.736051,54.9476931 16.7222675,55.3802407 15.8,55.97 C14.5477046,56.7813286 13.516781,57.8912896 12.8,59.2 C12.1672594,60.5538886 11.826542,62.0257876 11.8,63.52 C11.7263642,64.3177977 11.7096552,65.1198277 11.75,65.92 C11.86,68.13 11.84,76.86 11.66,93.87 L10.54,95.26 L10.19,95.35 L1.25,95.35 L0.14,94.05 L0.01,93.56 L0.01,44.8 L1.25,43.8 L10.25,43.71 L11.64,44.95 Z" id="Path"></path>
            <path d="M347.17,93.81 C346.67713,94.6733603 345.717943,95.1608159 344.73,95.05 C342.73,94.96 340.73,95.05 338.73,95.05 C338.112979,95.1302223 337.49377,94.9187035 337.054779,94.4777531 C336.615789,94.0368027 336.40703,93.4166571 336.49,92.8 C336.49,81.1666667 336.49,69.5333333 336.49,57.9 C336.49,53.98 336.49,50.0633333 336.49,46.15 C336.401083,45.5652297 336.586658,44.9721155 336.99302,44.5423099 C337.399382,44.1125044 337.981166,43.8939875 338.57,43.95 C340.81,43.95 343.05,43.95 345.29,43.95 C345.820034,43.9244498 346.335061,44.1302307 346.701553,44.5139922 C347.068045,44.8977536 347.249911,45.4217025 347.2,45.95 C347.2,61.7833333 347.2,77.6166667 347.2,93.45 C347.2,93.56 347.18,93.68 347.17,93.81 Z" id="Path"></path>
            <path d="M179.73,0 C187.98,0.08 195.19,1.61 201.95,5.08 C204.625161,6.46239503 207.137424,8.13947315 209.44,10.08 C210.148384,10.650167 210.529111,11.5336504 210.457073,12.4401316 C210.385035,13.3466128 209.869546,14.1588738 209.08,14.61 C207.297488,15.7205441 205.014811,15.6171476 203.34,14.35 C202.01,13.35 200.73,12.35 199.34,11.48 C188.630183,5.26854584 175.559958,4.68598727 164.34,9.92 C161.923451,11.0976591 159.657199,12.5614894 157.59,14.28 C156.726407,15.1272557 155.64745,15.7220656 154.47,16 C152.984377,16.2860441 151.452835,15.8265813 150.37,14.77 C149.840873,14.3121685 149.527827,13.653546 149.506921,12.9541545 C149.486015,12.2547631 149.759163,11.5786185 150.26,11.09 C150.780581,10.5889007 151.335242,10.1244562 151.92,9.7 C154.999538,7.18371762 158.428787,5.12886297 162.1,3.6 C166.461609,1.79307154 171.075881,0.669860607 175.78,0.27 C177.37,0.14 178.93,0.06 179.73,0 Z" id="Path"></path>
            <path d="M180.41,11.35 C187.119257,11.229848 193.638872,13.5786174 198.73,17.95 C199.52154,18.5319766 199.963207,19.4762187 199.902552,20.4568074 C199.841897,21.437396 199.287229,22.3200092 198.43,22.8 C196.49733,24.0671991 193.97496,23.9749662 192.14,22.57 C191.62,22.19 191.14,21.79 190.61,21.41 C184.315665,16.9323848 175.83012,17.1111989 169.73,21.85 C169.04,22.39 168.35,22.94 167.62,23.43 C165.669438,24.6528634 163.161419,24.5208623 161.35,23.1 C160.635223,22.5816185 160.208016,21.7554851 160.197988,20.8725763 C160.188308,19.9896675 160.596971,19.1542053 161.3,18.62 C164.056045,16.1500686 167.256067,14.2259838 170.73,12.95 C173.848318,11.8943312 177.117838,11.3539147 180.41,11.35 L180.41,11.35 Z" id="Path"></path>
            <path d="M323.32,87.51 C323.174363,88.4665545 322.977412,89.4145889 322.73,90.35 C321.727769,93.6189504 318.588291,95.752132 315.18,95.48 C311.782087,95.2712273 308.962153,92.7769876 308.34,89.43 C307.837894,87.2344265 308.195736,84.9299259 309.34,82.99 C310.623698,80.689892 313.098898,79.3147808 315.73,79.44 C318.335491,79.3772305 320.764221,80.7529982 322.05,83.02 C322.819034,84.396591 323.254045,85.9345427 323.32,87.51 L323.32,87.51 Z" id="Path"></path>
            <path d="M180.13,23.77 C184.380033,24.1376758 187.618693,27.7349918 187.539611,32.0001658 C187.460528,36.2653398 184.090741,39.7401259 179.83,39.95 C177.677994,39.8924123 175.642694,38.9590895 174.194862,37.3659077 C172.747029,35.7727259 172.012078,33.6576885 172.16,31.51 C172.247492,27.1821892 175.801483,23.7307602 180.13,23.77 L180.13,23.77 Z" id="Path"></path>
            <path d="M334.9,30.33 C335.01,26.61 337.24,23.86 340.69,23.24 C344.279315,22.5552672 347.768086,24.8295925 348.59,28.39 C348.964793,29.8949863 348.909355,31.4749838 348.43,32.95 C347.478088,35.8488021 344.728372,37.7724648 341.678898,37.6729751 C338.629424,37.5734855 336.010941,35.4746843 335.25,32.52 C335.07,31.83 335.01,31.07 334.9,30.33 Z" id="Path"></path>
        </g>
    </g>
</svg>