<?xml version="1.0" encoding="UTF-8"?>
<svg width="73px" height="90px" viewBox="0 0 73 90" version="1.1" xmlns="http://www.w3.org/2000/svg" xmlns:xlink="http://www.w3.org/1999/xlink">
    <!-- Generator: Sketch 59 (86127) - https://sketch.com -->
    <title>Combined Shape</title>
    <desc>Created with Sketch.</desc>
    <g id="Page-1" stroke="none" stroke-width="1" fill="none" fill-rule="evenodd">
        <path d="M36.6432804,0.0286340317 C36.8658878,0.0293787063 37.079406,0.0308680555 37.342078,0.0308680555 C44.0751523,0.238012714 50.9243837,1.73422558 55.5382457,8.12436185 C60.5759885,15.1015669 59.1813846,21.3855785 59.3829731,23.603038 C59.5845588,25.8205009 74.6531596,51.6309073 72.6474175,55.3155554 C71.5265466,57.3746487 66.5393215,54.0858737 66.4385287,57.0088887 C66.337733,59.9319066 71.3132402,89.182229 36.6751079,89.182229 L36.6751079,89.182229 L36.1564145,89.182229 C1.51828288,89.182229 6.49323933,59.9319066 6.39244367,57.0088887 C6.29165082,54.0858737 1.30442563,57.3746487 0.183554686,55.3155554 C-1.82218736,51.6309073 13.2464135,25.8205009 13.4479992,23.603038 C13.6495877,21.3855785 12.2549827,15.1015669 17.2927258,8.12436185 C21.9064577,1.73440586 28.7560032,0.238631021 35.488894,0.0314192693 C35.7739949,0.0307521468 36.1207585,0.0282203236 36.415486,0.0282203236 Z M50.1876002,31.0460982 C46.8919192,30.5470841 40.1029621,35.7990901 37.0675774,36.8051954 C36.7732112,36.8840709 36.6413485,36.9573386 36.415486,36.9573386 C36.1896236,36.9573386 36.0764779,36.889086 35.7633975,36.8051954 C32.8326439,35.8334704 26.4035991,30.9050351 22.9972531,31.0146784 C22.8753698,31.0186097 22.7577678,31.0288544 22.643925,31.0460982 C19.0009328,31.5976987 22.0209871,37.0648652 20.468827,41.0842798 C16.5619486,51.2013961 11.3118956,66.8744322 16.9156944,75.9977029 C18.6578324,78.8339883 22.7052885,83.7015427 35.5092874,83.8624432 C35.8117873,83.864447 36.1071752,83.8679465 36.415486,83.868511 C36.7236191,83.868511 37.0188179,83.8644188 37.3211315,83.8624432 C50.1257738,83.7017374 54.1736561,78.8340475 55.915828,75.9977029 C61.5196268,66.8744322 56.2695738,51.2013961 52.3626954,41.0842798 C50.8105352,37.0648652 53.8305924,31.5976987 50.1876002,31.0460982 Z M25.1265972,15.9571323 C23.2951584,15.9571323 21.8104861,17.4418046 21.8104861,19.2732434 C21.8104861,21.1046821 23.2951584,22.5893545 25.1265972,22.5893545 C26.9580359,22.5893545 28.4427083,21.1046821 28.4427083,19.2732434 C28.4427083,17.4418046 26.9580359,15.9571323 25.1265972,15.9571323 Z M47.7043749,15.9571323 C45.8729361,15.9571323 44.3882638,17.4418046 44.3882638,19.2732434 C44.3882638,21.1046821 45.8729361,22.5893545 47.7043749,22.5893545 C49.5358137,22.5893545 51.020486,21.1046821 51.020486,19.2732434 C51.020486,17.4418046 49.5358137,15.9571323 47.7043749,15.9571323 Z" id="Combined-Shape" fill="#FFFFFF" fill-rule="nonzero"></path>
    </g>
</svg>