<?xml version="1.0" encoding="UTF-8"?>
<svg width="32px" height="277px" viewBox="0 0 32 277" version="1.1" xmlns="http://www.w3.org/2000/svg" xmlns:xlink="http://www.w3.org/1999/xlink">
    <!-- Generator: Sketch 59.1 (86144) - https://sketch.com -->
    <title>remote-on-remote</title>
    <desc>Created with Sketch.</desc>
    <g id="Page-1" stroke="none" stroke-width="1" fill="none" fill-rule="evenodd">
        <g id="Artboard-Copy-7" transform="translate(-94.000000, -210.000000)">
            <g id="remote-on-remote" transform="translate(94.000000, 210.000000)">
                <path d="M21.21875,13.5 C20.812498,13.5 20.2812533,13.6093739 19.625,13.828125 L19.1374995,13.9631252 C18.9124999,14.0231251 18.7156258,14.0718748 18.546875,14.109375 C18.0781227,14.2031255 17.5625028,14.25 17,14.25 C16.4374972,14.25 15.9218773,14.2031255 15.453125,14.109375 C15.1718736,14.0468747 14.8125022,13.9531256 14.375,13.828125 C13.7187467,13.6093739 13.187502,13.5 12.78125,13.5 C11.6562444,13.5 10.6093798,13.7812472 9.640625,14.34375 C8.67187016,14.9062528 7.90625281,15.6718702 7.34375,16.640625 C6.78124719,17.6093798 6.5,18.6562444 6.5,19.78125 L6.5,21.75 C6.5,22.3750031 6.71874781,22.9062478 7.15625,23.34375 C7.59375219,23.7812522 8.12499688,24 8.75,24 L25.25,24 C25.8750031,24 26.4062478,23.7812522 26.84375,23.34375 C27.2812522,22.9062478 27.5,22.3750031 27.5,21.75 L27.5,19.78125 C27.5,18.6562444 27.2187528,17.6093798 26.65625,16.640625 C26.0937472,15.6718702 25.3281298,14.9062528 24.359375,14.34375 C23.3906202,13.7812472 22.3437556,13.5 21.21875,13.5 Z M26,21.75 C26,21.9687511 25.9296882,22.1484368 25.7890625,22.2890625 C25.6484368,22.4296882 25.4687511,22.5 25.25,22.5 L8.75,22.5 C8.53124891,22.5 8.3515632,22.4296882 8.2109375,22.2890625 C8.0703118,22.1484368 8,21.9687511 8,21.75 L8,19.78125 C8,18.4687434 8.46874531,17.3437547 9.40625,16.40625 C10.3437547,15.4687453 11.4687434,15 12.78125,15 C13.0312512,15 13.4218723,15.0781242 13.953125,15.234375 C15.0156303,15.5781267 16.0312452,15.75 17,15.75 C17.9687548,15.75 18.9843697,15.5781267 20.046875,15.234375 C20.5781277,15.0781242 20.9687488,15 21.21875,15 C22.5312566,15 23.6562453,15.4687453 24.59375,16.40625 C25.5312547,17.3437547 26,18.4687434 26,19.78125 L26,21.75 Z M17,12 C18.0937555,12 19.1015579,11.7343777 20.0234375,11.203125 C20.9453171,10.6718723 21.6718723,9.94531711 22.203125,9.0234375 C22.7343777,8.10155789 23,7.09375547 23,6 C23,4.90624453 22.7343777,3.89844211 22.203125,2.9765625 C21.6718723,2.05468289 20.9453171,1.32812766 20.0234375,0.796875 C19.1015579,0.265622344 18.0937555,0 17,0 C15.9062445,0 14.8984421,0.265622344 13.9765625,0.796875 C13.0546829,1.32812766 12.3281277,2.05468289 11.796875,2.9765625 C11.2656223,3.89844211 11,4.90624453 11,6 C11,7.09375547 11.2656223,8.10155789 11.796875,9.0234375 C12.3281277,9.94531711 13.0546829,10.6718723 13.9765625,11.203125 C14.8984421,11.7343777 15.9062445,12 17,12 Z M17,1.5 C18.2500062,1.5 19.3124956,1.93749562 20.1875,2.8125 C21.0625044,3.68750438 21.5,4.74999375 21.5,6 C21.5,7.25000625 21.0625044,8.31249562 20.1875,9.1875 C19.3124956,10.0625044 18.2500062,10.5 17,10.5 C15.7499938,10.5 14.6875044,10.0625044 13.8125,9.1875 C12.9374956,8.31249562 12.5,7.25000625 12.5,6 C12.5,4.74999375 12.9374956,3.68750438 13.8125,2.8125 C14.6875044,1.93749562 15.7499938,1.5 17,1.5 Z" id="-copy" fill="#FFFFFF" fill-rule="nonzero"></path>
                <path d="M30.078125,179.640625 L25.15625,172.9375 C24.9687491,172.624998 24.7109391,172.390626 24.3828125,172.234375 C24.0546859,172.078124 23.7187517,172 23.375,172 L10.625,172 C10.2812483,172 9.94531414,172.078124 9.6171875,172.234375 C9.28906086,172.390626 9.03125094,172.624998 8.84375,172.9375 L3.921875,179.640625 C3.64062359,180.046877 3.5,180.5 3.5,181 L3.5,187.75 C3.5,188.375003 3.71874781,188.906248 4.15625,189.34375 C4.59375219,189.781252 5.12499688,190 5.75,190 L28.25,190 C28.8750031,190 29.4062478,189.781252 29.84375,189.34375 C30.2812522,188.906248 30.5,188.375003 30.5,187.75 L30.5,181 C30.5,180.5 30.3593764,180.046877 30.078125,179.640625 Z M10.0625,173.828125 C10.1875006,173.609374 10.3749988,173.5 10.625,173.5 L23.375,173.5 C23.6250012,173.5 23.8124994,173.609374 23.9375,173.828125 L28.109375,179.5 L5.890625,179.5 L10.0625,173.828125 Z M29,181.75 L29,187.75 C29,187.968751 28.9296882,188.148437 28.7890625,188.289062 C28.6484368,188.429688 28.4687511,188.5 28.25,188.5 L5.75,188.5 C5.53124891,188.5 5.3515632,188.429688 5.2109375,188.289062 C5.0703118,188.148437 5,187.968751 5,187.75 L5,181.75 C5,181.531249 5.0703118,181.351563 5.2109375,181.210938 C5.3515632,181.070312 5.53124891,181 5.75,181 L28.25,181 C28.4687511,181 28.6484368,181.070312 28.7890625,181.210938 C28.9296882,181.351563 29,181.531249 29,181.75 Z M26.375,184.75 C26.375,184.437498 26.2656261,184.171876 26.046875,183.953125 C25.8281239,183.734374 25.5625016,183.625 25.25,183.625 C24.9374984,183.625 24.6718761,183.734374 24.453125,183.953125 C24.2343739,184.171876 24.125,184.437498 24.125,184.75 C24.125,185.062502 24.2343739,185.328124 24.453125,185.546875 C24.6718761,185.765626 24.9374984,185.875 25.25,185.875 C25.5625016,185.875 25.8281239,185.765626 26.046875,185.546875 C26.2656261,185.328124 26.375,185.062502 26.375,184.75 Z M23.375,184.75 C23.375,185.062502 23.2656261,185.328124 23.046875,185.546875 C22.8281239,185.765626 22.5625016,185.875 22.25,185.875 C21.9374984,185.875 21.6718761,185.765626 21.453125,185.546875 C21.2343739,185.328124 21.125,185.062502 21.125,184.75 C21.125,184.437498 21.2343739,184.171876 21.453125,183.953125 C21.6718761,183.734374 21.9374984,183.625 22.25,183.625 C22.5625016,183.625 22.8281239,183.734374 23.046875,183.953125 C23.2656261,184.171876 23.375,184.437498 23.375,184.75 Z" id="-copy" fill="#FFFFFF" fill-rule="nonzero"></path>
                <path d="M31.625,264.25 L17.75,264.25 L17.75,260.5 L21.5,260.5 C21.906252,260.5 22.257811,260.351564 22.5546875,260.054688 C22.851564,259.757811 23,259.406252 23,259 L23,254.5 C23,254.093748 22.851564,253.742189 22.5546875,253.445312 C22.257811,253.148436 21.906252,253 21.5,253 L12.5,253 C12.906252,253 11.742189,253.148436 11.4453125,253.445312 C11.148436,253.742189 11,254.093748 11,254.5 L11,259 C11,259.406252 11.148436,259.757811 11.4453125,260.054688 C11.742189,260.351564 12.093748,260.5 12.5,260.5 L16.25,260.5 L16.25,264.25 L2.375,264.25 C2.28124953,264.25 2.19531289,264.289062 2.1171875,264.367188 C2.03906211,264.445313 2,264.53125 2,264.625 L2,265.375 C2,265.46875 2.03906211,265.554687 2.1171875,265.632812 C2.19531289,265.710938 2.28124953,265.75 2.375,265.75 L8,265.75 L8,269.5 L5,269.5 C4.59374797,269.5 4.24218898,269.648436 3.9453125,269.945312 C3.64843602,270.242189 3.5,270.593748 3.5,271 L3.5,275.5 C3.5,275.906252 3.64843602,276.257811 3.9453125,276.554688 C4.24218898,276.851564 4.59374797,277 5,277 L12.5,277 C12.906252,277 13.257811,276.851564 13.5546875,276.554688 C13.851564,276.257811 14,275.906252 14,275.5 L14,271 C14,270.593748 13.851564,270.242189 13.5546875,269.945312 C13.257811,269.648436 12.906252,269.5 12.5,269.5 L9.5,269.5 L9.5,265.75 L24.5,265.75 L24.5,269.5 L21.5,269.5 C21.093748,269.5 20.742189,269.648436 20.4453125,269.945312 C20.148436,270.242189 20,270.593748 20,271 L20,275.5 C20,275.906252 20.148436,276.257811 20.4453125,276.554688 C20.742189,276.851564 21.093748,277 21.5,277 L29,277 C29.406252,277 29.757811,276.851564 30.0546875,276.554688 C30.351564,276.257811 30.5,275.906252 30.5,275.5 L30.5,271 C30.5,270.593748 30.351564,270.242189 30.0546875,269.945312 C29.757811,269.648436 29.406252,269.5 29,269.5 L26,269.5 L26,265.75 L31.625,265.75 C31.7187505,265.75 31.8046871,265.710938 31.8828125,265.632812 C31.9609379,265.554687 32,265.46875 32,265.375 L32,264.625 C32,264.53125 31.9609379,264.445313 31.8828125,264.367188 C31.8046871,264.289062 31.7187505,264.25 31.625,264.25 Z M12.5,271 L12.5,275.5 L5,275.5 L5,271 L12.5,271 Z M12.5,259 L12.5,254.5 L21.5,254.5 L21.5,259 L12.5,259 Z M29,271 L29,275.5 L21.5,275.5 L21.5,271 L29,271 Z" id="-copy" fill="#FFFFFF" fill-rule="nonzero"></path>
                <path d="M27.59375,91.515625 L26.65625,90.296875 L24.40625,91.984375 L25.34375,93.203125 L27.59375,91.515625 Z M30.5,91 C31.1250031,91 31.6874975,90.8281267 32.1875,90.484375 C32.5,90.2656239 32.7656239,90 32.984375,89.6875 C33.3281267,89.1874975 33.5,88.6250031 33.5,88 C33.5,87.3749969 33.3281267,86.8125025 32.984375,86.3125 C32.8906245,86.1562492 32.7734382,86.0078132 32.6328125,85.8671875 C32.4921868,85.7265618 32.3437508,85.6093755 32.1875,85.515625 C31.6874975,85.1718733 31.1250031,85 30.5,85 C29.8749969,85 29.3125025,85.1718733 28.8125,85.515625 C28.5,85.7343761 28.2343761,86 28.015625,86.3125 C27.6718733,86.8125025 27.5,87.3749969 27.5,88 C27.5,88.8125041 27.796872,89.515622 28.390625,90.109375 C28.984378,90.703128 29.6874959,91 30.5,91 Z M30.5,86.5 C30.906252,86.5 31.257811,86.648436 31.5546875,86.9453125 C31.851564,87.242189 32,87.593748 32,88 C32,88.406252 31.851564,88.757811 31.5546875,89.0546875 C31.257811,89.351564 30.906252,89.5 30.5,89.5 C30.093748,89.5 29.742189,89.351564 29.4453125,89.0546875 C29.148436,88.757811 29,88.406252 29,88 C29,87.593748 29.148436,87.242189 29.4453125,86.9453125 C29.742189,86.648436 30.093748,86.5 30.5,86.5 Z M8.1875,93.765625 C7.6874975,93.4218733 7.12500312,93.25 6.5,93.25 C5.87499688,93.25 5.3125025,93.4218733 4.8125,93.765625 C4.5,93.9843761 4.23437609,94.25 4.015625,94.5625 C3.67187328,95.0625025 3.5,95.6249969 3.5,96.25 C3.5,97.0625041 3.79687203,97.765622 4.390625,98.359375 C4.98437797,98.953128 5.68749594,99.25 6.5,99.25 C7.31250406,99.25 8.01562203,98.953128 8.609375,98.359375 C9.20312797,97.765622 9.5,97.0625041 9.5,96.25 C9.5,95.6249969 9.32812672,95.0625025 8.984375,94.5625 C8.76562391,94.25 8.5,93.9843761 8.1875,93.765625 Z M6.5,97.75 C6.09374797,97.75 5.74218898,97.601564 5.4453125,97.3046875 C5.14843602,97.007811 5,96.656252 5,96.25 C5,95.843748 5.14843602,95.492189 5.4453125,95.1953125 C5.74218898,94.898436 6.09374797,94.75 6.5,94.75 C6.90625203,94.75 7.25781102,94.898436 7.5546875,95.1953125 C7.85156398,95.492189 8,95.843748 8,96.25 C8,96.656252 7.85156398,97.007811 7.5546875,97.3046875 C7.25781102,97.601564 6.90625203,97.75 6.5,97.75 Z M10.625,97 L12.875,97 L12.875,95.5 L10.625,95.5 L10.625,97 Z M32.609375,100.890625 C32.4843744,100.734374 32.3437508,100.609375 32.1875,100.515625 C31.6874975,100.171873 31.1250031,100 30.5,100 C29.9531223,100 29.4541028,100.13159 29.0029303,100.394775 L28.8125,100.515625 C28.6562492,100.609375 28.5156256,100.718749 28.390625,100.84375 L24.078125,98.265625 C24.3593764,97.6406219 24.5,96.9687536 24.5,96.25 C24.5,95.3124953 24.2656273,94.4375041 23.796875,93.625 C23.3281227,92.8124959 22.6875041,92.1718773 21.875,91.703125 C21.0624959,91.2343727 20.1875047,91 19.25,91 C18.8124978,91 18.3125028,91.0781242 17.75,91.234375 L15.921875,87.296875 C16.6406286,86.703122 17,85.9375047 17,85 C17,84.3749969 16.8281267,83.8125025 16.484375,83.3125 C16.2656239,83 16,82.7343761 15.6875,82.515625 C15.1874975,82.1718733 14.6250031,82 14,82 C13.3749969,82 12.8125025,82.1718733 12.3125,82.515625 C12,82.7343761 11.7343761,83 11.515625,83.3125 C11.1718733,83.8125025 11,84.3749969 11,85 C11,85.8125041 11.296872,86.515622 11.890625,87.109375 C12.484378,87.703128 13.1874959,88 14,88 C14.1562508,88 14.3437489,87.9843752 14.5625,87.953125 L16.390625,91.84375 C15.6406212,92.3437525 15.0546896,92.9765587 14.6328125,93.7421875 C14.2109354,94.5078163 14,95.3515579 14,96.2734375 C14,97.1953171 14.2343727,98.0624959 14.703125,98.875 C15.1718773,99.6875041 15.8124959,100.328123 16.625,100.796875 C17.4375041,101.265627 18.3124953,101.5 19.25,101.5 C20.0625041,101.5 20.820309,101.328127 21.5234375,100.984375 C22.226566,100.640623 22.8124977,100.156253 23.28125,99.53125 L27.640625,102.15625 C27.5468745,102.437501 27.5,102.718749 27.5,103 C27.5,103.812504 27.796872,104.515622 28.390625,105.109375 C28.984378,105.703128 29.6874959,106 30.5,106 C31.1250031,106 31.6874975,105.828127 32.1875,105.484375 C32.5,105.265624 32.7656239,105 32.984375,104.6875 C33.3281267,104.187498 33.5,103.625003 33.5,103 C33.5,102.374997 33.3281267,101.812502 32.984375,101.3125 C32.8906245,101.156249 32.7656258,101.015626 32.609375,100.890625 Z M14,86.5 C13.593748,86.5 13.242189,86.351564 12.9453125,86.0546875 C12.648436,85.757811 12.5,85.406252 12.5,85 C12.5,84.593748 12.648436,84.242189 12.9453125,83.9453125 C13.242189,83.648436 13.593748,83.5 14,83.5 C14.406252,83.5 14.757811,83.648436 15.0546875,83.9453125 C15.351564,84.242189 15.5,84.593748 15.5,85 C15.5,85.406252 15.351564,85.757811 15.0546875,86.0546875 C14.757811,86.351564 14.406252,86.5 14,86.5 Z M19.25,100 C18.2187448,100 17.3359412,99.6328162 16.6015625,98.8984375 C15.8671838,98.1640588 15.5,97.2812552 15.5,96.25 C15.5,95.2187448 15.8671838,94.3359412 16.6015625,93.6015625 C17.3359412,92.8671838 18.2187448,92.5 19.25,92.5 C20.2812552,92.5 21.1640588,92.8671838 21.8984375,93.6015625 C22.6328162,94.3359412 23,95.2187448 23,96.25 C23,97.2812552 22.6328162,98.1640588 21.8984375,98.8984375 C21.1640588,99.6328162 20.2812552,100 19.25,100 Z M30.5,104.5 C30.093748,104.5 29.742189,104.351564 29.4453125,104.054688 C29.148436,103.757811 29,103.406252 29,103 C29,102.593748 29.148436,102.242189 29.4453125,101.945312 C29.742189,101.648436 30.093748,101.5 30.5,101.5 C30.906252,101.5 31.257811,101.648436 31.5546875,101.945312 C31.851564,102.242189 32,102.593748 32,103 C32,103.406252 31.851564,103.757811 31.5546875,104.054688 C31.257811,104.351564 30.906252,104.5 30.5,104.5 Z" id="-copy-2" fill="#FFFFFF" fill-rule="nonzero" transform="translate(18.500000, 94.000000) rotate(157.000000) translate(-18.500000, -94.000000) "></path>
                <path id="Line-7-Copy-3" d="M17.5,23.106 L17.5,78 L21.5,78 L17,87 L12.5,78 L16.5,78 L16.5,23.106 L17.5,23.106 Z" fill="#FFFFFF" fill-rule="nonzero"></path>
                <line x1="17" y1="96.5" x2="17" y2="171.5" id="Line-7-Copy-4" stroke="#FFFFFF" stroke-linecap="square"></line>
                <line x1="17" y1="192" x2="17" y2="255" id="Line-7-Copy-5" stroke="#FFFFFF" stroke-linecap="square" stroke-dasharray="2,4"></line>
            </g>
        </g>
    </g>
</svg>