<?xml version="1.0" encoding="UTF-8"?>
<svg width="32px" height="277px" viewBox="0 0 32 277" version="1.1" xmlns="http://www.w3.org/2000/svg" xmlns:xlink="http://www.w3.org/1999/xlink">
    <!-- Generator: Sketch 59.1 (86144) - https://sketch.com -->
    <title>remote-on-lan</title>
    <desc>Created with Sketch.</desc>
    <g id="Page-1" stroke="none" stroke-width="1" fill="none" fill-rule="evenodd">
        <g id="Artboard-Copy-7" transform="translate(-34.000000, -210.000000)">
            <g id="remote-on-lan" transform="translate(33.000000, 210.000000)">
                <path d="M22.21875,13.5 C21.812498,13.5 21.2812533,13.6093739 20.625,13.828125 L20.1374995,13.9631252 C19.9124999,14.0231251 19.7156258,14.0718748 19.546875,14.109375 C19.0781227,14.2031255 18.5625028,14.25 18,14.25 C17.4374972,14.25 16.9218773,14.2031255 16.453125,14.109375 C16.1718736,14.0468747 15.8125022,13.9531256 15.375,13.828125 C14.7187467,13.6093739 14.187502,13.5 13.78125,13.5 C12.6562444,13.5 11.6093798,13.7812472 10.640625,14.34375 C9.67187016,14.9062528 8.90625281,15.6718702 8.34375,16.640625 C7.78124719,17.6093798 7.5,18.6562444 7.5,19.78125 L7.5,21.75 C7.5,22.3750031 7.71874781,22.9062478 8.15625,23.34375 C8.59375219,23.7812522 9.12499688,24 9.75,24 L26.25,24 C26.8750031,24 27.4062478,23.7812522 27.84375,23.34375 C28.2812522,22.9062478 28.5,22.3750031 28.5,21.75 L28.5,19.78125 C28.5,18.6562444 28.2187528,17.6093798 27.65625,16.640625 C27.0937472,15.6718702 26.3281298,14.9062528 25.359375,14.34375 C24.3906202,13.7812472 23.3437556,13.5 22.21875,13.5 Z M27,21.75 C27,21.9687511 26.9296882,22.1484368 26.7890625,22.2890625 C26.6484368,22.4296882 26.4687511,22.5 26.25,22.5 L9.75,22.5 C9.53124891,22.5 9.3515632,22.4296882 9.2109375,22.2890625 C9.0703118,22.1484368 9,21.9687511 9,21.75 L9,19.78125 C9,18.4687434 9.46874531,17.3437547 10.40625,16.40625 C11.3437547,15.4687453 12.4687434,15 13.78125,15 C14.0312512,15 14.4218723,15.0781242 14.953125,15.234375 C16.0156303,15.5781267 17.0312452,15.75 18,15.75 C18.9687548,15.75 19.9843697,15.5781267 21.046875,15.234375 C21.5781277,15.0781242 21.9687488,15 22.21875,15 C23.5312566,15 24.6562453,15.4687453 25.59375,16.40625 C26.5312547,17.3437547 27,18.4687434 27,19.78125 L27,21.75 Z M18,12 C19.0937555,12 20.1015579,11.7343777 21.0234375,11.203125 C21.9453171,10.6718723 22.6718723,9.94531711 23.203125,9.0234375 C23.7343777,8.10155789 24,7.09375547 24,6 C24,4.90624453 23.7343777,3.89844211 23.203125,2.9765625 C22.6718723,2.05468289 21.9453171,1.32812766 21.0234375,0.796875 C20.1015579,0.265622344 19.0937555,0 18,0 C16.9062445,0 15.8984421,0.265622344 14.9765625,0.796875 C14.0546829,1.32812766 13.3281277,2.05468289 12.796875,2.9765625 C12.2656223,3.89844211 12,4.90624453 12,6 C12,7.09375547 12.2656223,8.10155789 12.796875,9.0234375 C13.3281277,9.94531711 14.0546829,10.6718723 14.9765625,11.203125 C15.8984421,11.7343777 16.9062445,12 18,12 Z M18,1.5 C19.2500062,1.5 20.3124956,1.93749562 21.1875,2.8125 C22.0625044,3.68750438 22.5,4.74999375 22.5,6 C22.5,7.25000625 22.0625044,8.31249562 21.1875,9.1875 C20.3124956,10.0625044 19.2500062,10.5 18,10.5 C16.7499938,10.5 15.6875044,10.0625044 14.8125,9.1875 C13.9374956,8.31249562 13.5,7.25000625 13.5,6 C13.5,4.74999375 13.9374956,3.68750438 14.8125,2.8125 C15.6875044,1.93749562 16.7499938,1.5 18,1.5 Z" id="" fill="#999999" fill-rule="nonzero"></path>
                <path d="M31.078125,179.640625 L26.15625,172.9375 C25.9687491,172.624998 25.7109391,172.390626 25.3828125,172.234375 C25.0546859,172.078124 24.7187517,172 24.375,172 L11.625,172 C11.2812483,172 10.9453141,172.078124 10.6171875,172.234375 C10.2890609,172.390626 10.0312509,172.624998 9.84375,172.9375 L4.921875,179.640625 C4.64062359,180.046877 4.5,180.5 4.5,181 L4.5,187.75 C4.5,188.375003 4.71874781,188.906248 5.15625,189.34375 C5.59375219,189.781252 6.12499688,190 6.75,190 L29.25,190 C29.8750031,190 30.4062478,189.781252 30.84375,189.34375 C31.2812522,188.906248 31.5,188.375003 31.5,187.75 L31.5,181 C31.5,180.5 31.3593764,180.046877 31.078125,179.640625 Z M11.0625,173.828125 C11.1875006,173.609374 11.3749988,173.5 11.625,173.5 L24.375,173.5 C24.6250012,173.5 24.8124994,173.609374 24.9375,173.828125 L29.109375,179.5 L6.890625,179.5 L11.0625,173.828125 Z M30,181.75 L30,187.75 C30,187.968751 29.9296882,188.148437 29.7890625,188.289062 C29.6484368,188.429688 29.4687511,188.5 29.25,188.5 L6.75,188.5 C6.53124891,188.5 6.3515632,188.429688 6.2109375,188.289062 C6.0703118,188.148437 6,187.968751 6,187.75 L6,181.75 C6,181.531249 6.0703118,181.351563 6.2109375,181.210938 C6.3515632,181.070312 6.53124891,181 6.75,181 L29.25,181 C29.4687511,181 29.6484368,181.070312 29.7890625,181.210938 C29.9296882,181.351563 30,181.531249 30,181.75 Z M27.375,184.75 C27.375,184.437498 27.2656261,184.171876 27.046875,183.953125 C26.8281239,183.734374 26.5625016,183.625 26.25,183.625 C25.9374984,183.625 25.6718761,183.734374 25.453125,183.953125 C25.2343739,184.171876 25.125,184.437498 25.125,184.75 C25.125,185.062502 25.2343739,185.328124 25.453125,185.546875 C25.6718761,185.765626 25.9374984,185.875 26.25,185.875 C26.5625016,185.875 26.8281239,185.765626 27.046875,185.546875 C27.2656261,185.328124 27.375,185.062502 27.375,184.75 Z M24.375,184.75 C24.375,185.062502 24.2656261,185.328124 24.046875,185.546875 C23.8281239,185.765626 23.5625016,185.875 23.25,185.875 C22.9374984,185.875 22.6718761,185.765626 22.453125,185.546875 C22.2343739,185.328124 22.125,185.062502 22.125,184.75 C22.125,184.437498 22.2343739,184.171876 22.453125,183.953125 C22.6718761,183.734374 22.9374984,183.625 23.25,183.625 C23.5625016,183.625 23.8281239,183.734374 24.046875,183.953125 C24.2656261,184.171876 24.375,184.437498 24.375,184.75 Z" id="" fill="#999999" fill-rule="nonzero"></path>
                <path d="M32.625,95.25 L18.75,95.25 L18.75,91.5 L22.5,91.5 C22.906252,91.5 23.257811,91.351564 23.5546875,91.0546875 C23.851564,90.757811 24,90.406252 24,90 L24,85.5 C24,85.093748 23.851564,84.742189 23.5546875,84.4453125 C23.257811,84.148436 22.906252,84 22.5,84 L13.5,84 C13.906252,84 12.742189,84.148436 12.4453125,84.4453125 C12.148436,84.742189 12,85.093748 12,85.5 L12,90 C12,90.406252 12.148436,90.757811 12.4453125,91.0546875 C12.742189,91.351564 13.093748,91.5 13.5,91.5 L17.25,91.5 L17.25,95.25 L3.375,95.25 C3.28124953,95.25 3.19531289,95.2890621 3.1171875,95.3671875 C3.03906211,95.4453129 3,95.5312495 3,95.625 L3,96.375 C3,96.4687505 3.03906211,96.5546871 3.1171875,96.6328125 C3.19531289,96.7109379 3.28124953,96.75 3.375,96.75 L9,96.75 L9,100.5 L6,100.5 C5.59374797,100.5 5.24218898,100.648436 4.9453125,100.945312 C4.64843602,101.242189 4.5,101.593748 4.5,102 L4.5,106.5 C4.5,106.906252 4.64843602,107.257811 4.9453125,107.554688 C5.24218898,107.851564 5.59374797,108 6,108 L13.5,108 C13.906252,108 14.257811,107.851564 14.5546875,107.554688 C14.851564,107.257811 15,106.906252 15,106.5 L15,102 C15,101.593748 14.851564,101.242189 14.5546875,100.945312 C14.257811,100.648436 13.906252,100.5 13.5,100.5 L10.5,100.5 L10.5,96.75 L25.5,96.75 L25.5,100.5 L22.5,100.5 C22.093748,100.5 21.742189,100.648436 21.4453125,100.945312 C21.148436,101.242189 21,101.593748 21,102 L21,106.5 C21,106.906252 21.148436,107.257811 21.4453125,107.554688 C21.742189,107.851564 22.093748,108 22.5,108 L30,108 C30.406252,108 30.757811,107.851564 31.0546875,107.554688 C31.351564,107.257811 31.5,106.906252 31.5,106.5 L31.5,102 C31.5,101.593748 31.351564,101.242189 31.0546875,100.945312 C30.757811,100.648436 30.406252,100.5 30,100.5 L27,100.5 L27,96.75 L32.625,96.75 C32.7187505,96.75 32.8046871,96.7109379 32.8828125,96.6328125 C32.9609379,96.5546871 33,96.4687505 33,96.375 L33,95.625 C33,95.5312495 32.9609379,95.4453129 32.8828125,95.3671875 C32.8046871,95.2890621 32.7187505,95.25 32.625,95.25 Z M13.5,102 L13.5,106.5 L6,106.5 L6,102 L13.5,102 Z M13.5,90 L13.5,85.5 L22.5,85.5 L22.5,90 L13.5,90 Z M30,102 L30,106.5 L22.5,106.5 L22.5,102 L30,102 Z" id="" fill="#999999" fill-rule="nonzero"></path>
                <path d="M28.4749507,261.200716 L27.5374507,259.981966 L25.2874507,261.669466 L26.2249507,262.888216 L28.4749507,261.200716 Z M31.3812007,260.685091 C32.0062039,260.685091 32.5686982,260.513218 33.0687007,260.169466 C33.3812007,259.950715 33.6468246,259.685091 33.8655757,259.372591 C34.2093275,258.872589 34.3812007,258.310094 34.3812007,257.685091 C34.3812007,257.060088 34.2093275,256.497594 33.8655757,255.997591 C33.7718253,255.841341 33.6546389,255.692905 33.5140132,255.552279 C33.3733875,255.411653 33.2249515,255.294467 33.0687007,255.200716 C32.5686982,254.856965 32.0062039,254.685091 31.3812007,254.685091 C30.7561976,254.685091 30.1937032,254.856965 29.6937007,255.200716 C29.3812007,255.419467 29.1155768,255.685091 28.8968257,255.997591 C28.553074,256.497594 28.3812007,257.060088 28.3812007,257.685091 C28.3812007,258.497595 28.6780728,259.200713 29.2718257,259.794466 C29.8655787,260.388219 30.5686967,260.685091 31.3812007,260.685091 Z M31.3812007,256.185091 C31.7874528,256.185091 32.1390118,256.333527 32.4358882,256.630404 C32.7327647,256.92728 32.8812007,257.278839 32.8812007,257.685091 C32.8812007,258.091343 32.7327647,258.442902 32.4358882,258.739779 C32.1390118,259.036655 31.7874528,259.185091 31.3812007,259.185091 C30.9749487,259.185091 30.6233897,259.036655 30.3265132,258.739779 C30.0296368,258.442902 29.8812007,258.091343 29.8812007,257.685091 C29.8812007,257.278839 30.0296368,256.92728 30.3265132,256.630404 C30.6233897,256.333527 30.9749487,256.185091 31.3812007,256.185091 Z M9.06870074,263.450716 C8.56869824,263.106965 8.00620387,262.935091 7.38120074,262.935091 C6.75619762,262.935091 6.19370324,263.106965 5.69370074,263.450716 C5.38120074,263.669467 5.11557683,263.935091 4.89682574,264.247591 C4.55307402,264.747594 4.38120074,265.310088 4.38120074,265.935091 C4.38120074,266.747595 4.67807277,267.450713 5.27182574,268.044466 C5.86557871,268.638219 6.56869668,268.935091 7.38120074,268.935091 C8.1937048,268.935091 8.89682277,268.638219 9.49057574,268.044466 C10.0843287,267.450713 10.3812007,266.747595 10.3812007,265.935091 C10.3812007,265.310088 10.2093275,264.747594 9.86557574,264.247591 C9.64682465,263.935091 9.38120074,263.669467 9.06870074,263.450716 Z M7.38120074,267.435091 C6.97494871,267.435091 6.62338972,267.286655 6.32651324,266.989779 C6.02963676,266.692902 5.88120074,266.341343 5.88120074,265.935091 C5.88120074,265.528839 6.02963676,265.17728 6.32651324,264.880404 C6.62338972,264.583527 6.97494871,264.435091 7.38120074,264.435091 C7.78745277,264.435091 8.13901176,264.583527 8.43588824,264.880404 C8.73276472,265.17728 8.88120074,265.528839 8.88120074,265.935091 C8.88120074,266.341343 8.73276472,266.692902 8.43588824,266.989779 C8.13901176,267.286655 7.78745277,267.435091 7.38120074,267.435091 Z M11.5062007,266.685091 L13.7562007,266.685091 L13.7562007,265.185091 L11.5062007,265.185091 L11.5062007,266.685091 Z M33.4905757,270.575716 C33.3655751,270.419466 33.2249515,270.294467 33.0687007,270.200716 C32.5686982,269.856965 32.0062039,269.685091 31.3812007,269.685091 C30.834323,269.685091 30.3353035,269.816682 29.884131,270.079866 L29.6937007,270.200716 C29.53745,270.294467 29.3968264,270.403841 29.2718257,270.528841 L24.9593257,267.950716 C25.2405771,267.325713 25.3812007,266.653845 25.3812007,265.935091 C25.3812007,264.997587 25.1468281,264.122595 24.6780757,263.310091 C24.2093234,262.497587 23.5687048,261.856969 22.7562007,261.388216 C21.9436967,260.919464 21.0687054,260.685091 20.1312007,260.685091 C19.6936986,260.685091 19.1937036,260.763216 18.6312007,260.919466 L16.8030757,256.981966 C17.5218293,256.388213 17.8812007,255.622596 17.8812007,254.685091 C17.8812007,254.060088 17.7093275,253.497594 17.3655757,252.997591 C17.1468246,252.685091 16.8812007,252.419467 16.5687007,252.200716 C16.0686982,251.856965 15.5062039,251.685091 14.8812007,251.685091 C14.2561976,251.685091 13.6937032,251.856965 13.1937007,252.200716 C12.8812007,252.419467 12.6155768,252.685091 12.3968257,252.997591 C12.053074,253.497594 11.8812007,254.060088 11.8812007,254.685091 C11.8812007,255.497595 12.1780728,256.200713 12.7718257,256.794466 C13.3655787,257.388219 14.0686967,257.685091 14.8812007,257.685091 C15.0374515,257.685091 15.2249496,257.669466 15.4437007,257.638216 L17.2718257,261.528841 C16.521822,262.028844 15.9358903,262.66165 15.5140132,263.427279 C15.0921361,264.192908 14.8812007,265.036649 14.8812007,265.958529 C14.8812007,266.880408 15.1155734,267.747587 15.5843257,268.560091 C16.0530781,269.372595 16.6936967,270.013214 17.5062007,270.481966 C18.3187048,270.950719 19.1936961,271.185091 20.1312007,271.185091 C20.9437048,271.185091 21.7015097,271.013218 22.4046382,270.669466 C23.1077668,270.325715 23.6936984,269.841344 24.1624507,269.216341 L28.5218257,271.841341 C28.4280753,272.122593 28.3812007,272.40384 28.3812007,272.685091 C28.3812007,273.497595 28.6780728,274.200713 29.2718257,274.794466 C29.8655787,275.388219 30.5686967,275.685091 31.3812007,275.685091 C32.0062039,275.685091 32.5686982,275.513218 33.0687007,275.169466 C33.3812007,274.950715 33.6468246,274.685091 33.8655757,274.372591 C34.2093275,273.872589 34.3812007,273.310094 34.3812007,272.685091 C34.3812007,272.060088 34.2093275,271.497594 33.8655757,270.997591 C33.7718253,270.841341 33.6468265,270.700717 33.4905757,270.575716 Z M14.8812007,256.185091 C14.4749487,256.185091 14.1233897,256.036655 13.8265132,255.739779 C13.5296368,255.442902 13.3812007,255.091343 13.3812007,254.685091 C13.3812007,254.278839 13.5296368,253.92728 13.8265132,253.630404 C14.1233897,253.333527 14.4749487,253.185091 14.8812007,253.185091 C15.2874528,253.185091 15.6390118,253.333527 15.9358882,253.630404 C16.2327647,253.92728 16.3812007,254.278839 16.3812007,254.685091 C16.3812007,255.091343 16.2327647,255.442902 15.9358882,255.739779 C15.6390118,256.036655 15.2874528,256.185091 14.8812007,256.185091 Z M20.1312007,269.685091 C19.0999456,269.685091 18.2171419,269.317907 17.4827632,268.583529 C16.7483846,267.84915 16.3812007,266.966346 16.3812007,265.935091 C16.3812007,264.903836 16.7483846,264.021032 17.4827632,263.286654 C18.2171419,262.552275 19.0999456,262.185091 20.1312007,262.185091 C21.1624559,262.185091 22.0452596,262.552275 22.7796382,263.286654 C23.5140169,264.021032 23.8812007,264.903836 23.8812007,265.935091 C23.8812007,266.966346 23.5140169,267.84915 22.7796382,268.583529 C22.0452596,269.317907 21.1624559,269.685091 20.1312007,269.685091 Z M31.3812007,274.185091 C30.9749487,274.185091 30.6233897,274.036655 30.3265132,273.739779 C30.0296368,273.442902 29.8812007,273.091343 29.8812007,272.685091 C29.8812007,272.278839 30.0296368,271.92728 30.3265132,271.630404 C30.6233897,271.333527 30.9749487,271.185091 31.3812007,271.185091 C31.7874528,271.185091 32.1390118,271.333527 32.4358882,271.630404 C32.7327647,271.92728 32.8812007,272.278839 32.8812007,272.685091 C32.8812007,273.091343 32.7327647,273.442902 32.4358882,273.739779 C32.1390118,274.036655 31.7874528,274.185091 31.3812007,274.185091 Z" id="-copy-3" fill="#999999" fill-rule="nonzero" transform="translate(19.381201, 263.685091) rotate(157.000000) translate(-19.381201, -263.685091) "></path>
                <path id="Line-7-Copy" d="M18.4958087,23.1018435 L18.929,74.995 L22.928887,74.9627311 L18.5041739,83.9999826 L13.9292006,75.0378612 L17.929,75.004 L17.4958435,23.1101913 L18.4958087,23.1018435 Z" fill="#999999" fill-rule="nonzero"></path>
                <path id="Line-7-Copy-2" d="M18.5,96 L18.5,163 L22.5,163 L18,172 L13.5,163 L17.5,163 L17.5,96 L18.5,96 Z" fill="#999999" fill-rule="nonzero"></path>
                <line x1="18" y1="190" x2="18" y2="257" id="Line-7" stroke="#999999" stroke-linecap="square" stroke-dasharray="2,4"></line>
            </g>
        </g>
    </g>
</svg>