<svg id="New_Remot3.it_4b_Image" data-name="New Remot3.it 4b Image" xmlns="http://www.w3.org/2000/svg" viewBox="0 0 385.13 95.97"><defs><style>.cls-1{fill:#fff;}</style></defs><title>logo-white</title><path class="cls-1" d="M143.51,58.29c-2.68,0-5.35,0-8.17,0,0,.57-.06,1.07-.06,1.57,0,11.68,0,24.65,0,36.33l-1.93,2.24H128l-2.12-2.18v-38H115l-.06,38.14-2,2-5.29,0-2.06-1.94,0-46.18a3.74,3.74,0,0,1,3.82-3.77h34a11.77,11.77,0,0,1,7.6,2.72,11.63,11.63,0,0,1,3.46,5.23,20.05,20.05,0,0,1,1.29,6.67c.09,8.52.13,17,.18,25.55,0,2.72,0,9.65,0,9.65l-2.08,2h-5.32l-2.24-2.08,0-30.49a30.58,30.58,0,0,0-.23-4.32C145.62,59.9,145,58.3,143.51,58.29Z" transform="translate(-11.27 -3.05)"/><path class="cls-1" d="M60,56.06V67.71l32.48.09,2.26,2.31-.09,5.07c-.62.63-1.25,1.26-1.88,1.88h0q-15.54.21-31.2.21H60c0,.48-.08.8-.09,1.11C60,80,60,81,60,81.75c0,1.15.06,1.72.06,2.12,0,1.17,0,2.11-.07,2.72a2.59,2.59,0,0,0,.33.74A2.75,2.75,0,0,0,61,88a3.56,3.56,0,0,0,2.3.83c1,0,2,.09,3,.11L92.5,89l2,2.06c0,.22,0,.55.09,1s.07,1.06.07,2.1c0,.69,0,1.5-.09,2.43l-2.08,1.74-.34.06-26.63.07-3.86-.1a13.66,13.66,0,0,1-4.58-.86,12.14,12.14,0,0,1-5.34-3.75,11.86,11.86,0,0,1-2.41-5.31V86q0-18.7-.07-37.41l2.34-2.13,40.88.18,2.13,2v1.1q0,2.2,0,4.38l-2.14,1.79q-15.44.18-30.95.19Z" transform="translate(-11.27 -3.05)"/><path class="cls-1" d="M295.83,67.66l.24-11.83h-1.46c-9.76,0-19.51,0-29.27,0a4.35,4.35,0,0,1-2-.45,4.85,4.85,0,0,1-2.1-2.26c0-1.42,0-2.84,0-4.26a4.3,4.3,0,0,1,.16-.41,4.94,4.94,0,0,1,2.13-2.17l40.72-.11a3.45,3.45,0,0,1,.89.58,5.08,5.08,0,0,1,.61.72,4.89,4.89,0,0,1,.67,1,3.26,3.26,0,0,1,.21,1.24q0,18.3,0,36.59a11.66,11.66,0,0,1-2.2,7.08A11.32,11.32,0,0,1,298,97.55a21.63,21.63,0,0,1-5.68.79c-5-.12-14.71-.06-27.71,0a3.9,3.9,0,0,1-1.08-.26,4.36,4.36,0,0,1-1.95-1.57l-.21-1-.15-3.89.54-1.41a3.3,3.3,0,0,1,2.4-1.43L277,88.77l12.94,0a11.11,11.11,0,0,0,3.31-.32,3.74,3.74,0,0,0,1.95-.89,3.11,3.11,0,0,0,.68-2.37v-8L294.56,77,265,76.78a3,3,0,0,1-1.64-.06,3.27,3.27,0,0,1-1.93-1.94V69.41l2-1.84Z" transform="translate(-11.27 -3.05)"/><path class="cls-1" d="M179.33,96.26a26.46,26.46,0,0,1-12.2-13c-.51-1.18-5.52-13.31,1.78-24.77,7.44-11.67,20.9-12.08,22.33-12.1,1,0,15.58,0,23.27,12.38a26.75,26.75,0,0,1-1.12,29.65C205.21,99.56,189.84,101.47,179.33,96.26Zm11.73-40.72c-9.18.28-16,8.68-15.86,17.45s7.07,16.63,16,16.8C200.57,90,208,81.61,208,72.53S200.39,55.26,191.06,55.54Z" transform="translate(-11.27 -3.05)"/><path class="cls-1" d="M368.76,48l.87-.82,5.67-.15V45.9l0-8.2,0-1.65L376.52,35l8.23.12,1.05,1c0,3.65.07,7.31.1,11q.77.06,1.56.09a64.37,64.37,0,0,0,7.1,0l1.32,1.34v7.81a11.27,11.27,0,0,1-1.1.83l-.25.16-8.69,0c0,.46-.06.92-.1,1.37V82.05c.05.56.09,1.12.13,1.68a4.54,4.54,0,0,0,1.36,3.54,4.11,4.11,0,0,0,2.07.78,18,18,0,0,0,5.78,0h0c.43.35.86.7,1.32,1.09,0,2.84-.09,5.68-.14,8.53a26.67,26.67,0,0,1-2.94.55,26.29,26.29,0,0,1-5.83.1c-.39,0-.95-.1-1.62-.21-2.12-.37-5.17-.91-7.38-3.07a11.1,11.1,0,0,1-2.78-5.75,16.76,16.76,0,0,1-.41-5.58l-.24-26.46-5.54,0-.67-.82Z" transform="translate(-11.27 -3.05)"/><path class="cls-1" d="M251.46,48.39l.15,7.8-1.09,1.08-8.82,0,0,26.21a8.55,8.55,0,0,0,.29,1.94,3.53,3.53,0,0,0,.65,1.5,3.43,3.43,0,0,0,2,.92,12.64,12.64,0,0,0,3.12.18c.78,0,1.77,0,2.94-.09l1.3,1.24v8.45l-3,.61-6.94,0a13.64,13.64,0,0,1-4.52-1.07,10,10,0,0,1-2.6-1.48,10.79,10.79,0,0,1-3.22-4.88,15.35,15.35,0,0,1-.86-3.44c0-1.44,0-2.88,0-4.31q0-12.89,0-25.75h-5.49l-1.26-1.06c0-2.71,0-5.42,0-8.12l1.11-1.06.73,0h3.76l1.11,0c0-3.64,0-7.29,0-10.93.45-.33.89-.67,1.33-1h8.22l1.1,1.11q.07,5.48.13,11l7.4,0,1.34,0Z" transform="translate(-11.27 -3.05)"/><path class="cls-1" d="M22.91,48l0,3.78a14.42,14.42,0,0,1,4.35-3.74,15.83,15.83,0,0,1,5.31-1.68,23.62,23.62,0,0,1,4-.22l2.65.22.13,10.18L38,57.26c-1.41-.06-2.59,0-3.45,0a17.61,17.61,0,0,0-4.38.51,10,10,0,0,0-3,1.29,9.09,9.09,0,0,0-3,3.23,10.76,10.76,0,0,0-1,4.32,15.88,15.88,0,0,0-.05,2.4c.11,2.21.09,10.94-.09,28l-1.13,1.38-.35.09-8.94,0L11.41,97.1l-.14-.49V47.85l1.24-1,9-.09Z" transform="translate(-11.27 -3.05)"/><path class="cls-1" d="M358.44,96.86A2.49,2.49,0,0,1,356,98.1c-2-.09-4,0-6,0a2,2,0,0,1-2.24-2.25V49.17A1.93,1.93,0,0,1,349.84,47c2.24,0,4.48,0,6.72,0A1.82,1.82,0,0,1,358.47,49v47.5C358.47,96.61,358.45,96.73,358.44,96.86Z" transform="translate(-11.27 -3.05)"/><path class="cls-1" d="M191,3.05c8.25.09,15.46,1.61,22.22,5.08a39.89,39.89,0,0,1,7.48,5,2.75,2.75,0,0,1-.35,4.53,5.08,5.08,0,0,1-5.74-.27c-1.33-1-2.62-2-4-2.87a37.86,37.86,0,0,0-35-1.55,33.48,33.48,0,0,0-6.76,4.36,6.64,6.64,0,0,1-3.12,1.72,4.67,4.67,0,0,1-4.1-1.23,2.5,2.5,0,0,1-.11-3.68,16,16,0,0,1,1.66-1.4,41.13,41.13,0,0,1,10.18-6.1,46.13,46.13,0,0,1,13.68-3.33C188.64,3.19,190.2,3.11,191,3.05Z" transform="translate(-11.27 -3.05)"/><path class="cls-1" d="M191.68,14.4A27.3,27.3,0,0,1,210,21a2.89,2.89,0,0,1-.29,4.85,5.45,5.45,0,0,1-6.29-.23c-.52-.38-1-.78-1.53-1.16A17.51,17.51,0,0,0,181,24.9c-.69.55-1.38,1.09-2.11,1.59a5.46,5.46,0,0,1-6.26-.33,2.79,2.79,0,0,1,0-4.48A29,29,0,0,1,182,16,30.15,30.15,0,0,1,191.68,14.4Z" transform="translate(-11.27 -3.05)"/><path class="cls-1" d="M334.59,90.56A26.45,26.45,0,0,1,334,93.4a7.29,7.29,0,0,1-7.55,5.14,7.42,7.42,0,0,1-6.84-6.05,8.79,8.79,0,0,1,1-6.44A6.93,6.93,0,0,1,327,82.49a7.07,7.07,0,0,1,6.32,3.58A10,10,0,0,1,334.59,90.56Z" transform="translate(-11.27 -3.05)"/><path class="cls-1" d="M191.4,26.82A8.11,8.11,0,0,1,191.1,43a7.9,7.9,0,0,1-7.67-8.44A7.91,7.91,0,0,1,191.4,26.82Z" transform="translate(-11.27 -3.05)"/><path class="cls-1" d="M346.17,33.38c.11-3.72,2.34-6.48,5.79-7.09a6.8,6.8,0,0,1,7.9,5.15,8.28,8.28,0,0,1-.16,4.6,6.87,6.87,0,0,1-13.18-.43C346.34,34.88,346.28,34.12,346.17,33.38Z" transform="translate(-11.27 -3.05)"/></svg>