<svg id="New_Remot3.it_4b_Image" data-name="New Remot3.it 4b Image" xmlns="http://www.w3.org/2000/svg" viewBox="0 0 79.35 95.41"><defs><style>.cls-1{fill:#fff;}</style></defs><title>r3-logo-white</title><path class="cls-1" d="M68.55,64.61l.24-11.83H67.34c-9.76,0-19.52,0-29.27,0a4.36,4.36,0,0,1-2-.44,4.9,4.9,0,0,1-2.1-2.26l0-4.26a4.3,4.3,0,0,1,.16-.41,4.78,4.78,0,0,1,2.13-2.17L77,43.16a3.47,3.47,0,0,1,.9.58,5.08,5.08,0,0,1,.61.72,4.75,4.75,0,0,1,.66,1,3.23,3.23,0,0,1,.22,1.24q0,18.28,0,36.59a11.65,11.65,0,0,1-2.19,7.08,11.35,11.35,0,0,1-6.43,4.13,21.59,21.59,0,0,1-5.68.79c-5-.12-14.71-.07-27.71,0A3.92,3.92,0,0,1,36.25,95a4.31,4.31,0,0,1-2-1.58l-.21-.94c-.05-1.3-.11-2.6-.16-3.9l.54-1.41a3.5,3.5,0,0,1,1.09-1,3.4,3.4,0,0,1,1.32-.42l12.83,0,12.94,0A11.22,11.22,0,0,0,66,85.35a3.77,3.77,0,0,0,1.94-.89,3.17,3.17,0,0,0,.69-2.37V74L67.29,74l-29.57-.23a3.13,3.13,0,0,1-1.65-.06,3.27,3.27,0,0,1-1.93-1.94V66.36l2-1.84Z"/><path class="cls-1" d="M11.64,45l0,3.77A14.16,14.16,0,0,1,16,45a15.05,15.05,0,0,1,3.09-1.24,17,17,0,0,1,2.21-.44,21.77,21.77,0,0,1,4-.22l2.66.22.13,10.18-1.46.69c-1.41-.07-2.59-.05-3.45,0a16.71,16.71,0,0,0-4.38.51,10.31,10.31,0,0,0-3,1.28,9.12,9.12,0,0,0-3,3.23,10.62,10.62,0,0,0-1,4.33,17.34,17.34,0,0,0-.05,2.39c.11,2.22.09,11-.09,28l-1.12,1.39-.36.09-8.93,0L.13,94,0,93.56V44.8l1.24-1,9-.09Z"/><path class="cls-1" d="M35.76,0A48.25,48.25,0,0,1,58,5.08a39.91,39.91,0,0,1,7.49,5,2.74,2.74,0,0,1-.36,4.53,5.06,5.06,0,0,1-5.74-.26c-1.32-1-2.61-2-4-2.87a36.08,36.08,0,0,0-22-5,36.2,36.2,0,0,0-13,3.42,33.18,33.18,0,0,0-6.75,4.37A6.67,6.67,0,0,1,10.51,16a4.62,4.62,0,0,1-4.1-1.22,2.5,2.5,0,0,1-.11-3.69A17.07,17.07,0,0,1,8,9.7,40.83,40.83,0,0,1,18.13,3.6,45.66,45.66,0,0,1,31.82.27C33.37.13,34.92.06,35.76,0Z"/><path class="cls-1" d="M36.4,11.34A27.43,27.43,0,0,1,54.69,18a2.89,2.89,0,0,1-.3,4.85,5.43,5.43,0,0,1-6.29-.22l-1.52-1.16a17.51,17.51,0,0,0-20.88.41c-.69.55-1.38,1.09-2.11,1.58a5.44,5.44,0,0,1-6.27-.33,2.79,2.79,0,0,1-.05-4.47,29.36,29.36,0,0,1,9.48-5.72A30.48,30.48,0,0,1,36.4,11.34Z"/><path class="cls-1" d="M36.13,23.77A7.94,7.94,0,0,1,43.88,32a7.87,7.87,0,1,1-15.72-.48A7.9,7.9,0,0,1,36.13,23.77Z"/></svg>