<?xml version="1.0" encoding="UTF-8"?>
<svg width="168px" height="168px" viewBox="0 0 168 168" version="1.1" xmlns="http://www.w3.org/2000/svg" xmlns:xlink="http://www.w3.org/1999/xlink">
    <!-- Generator: Sketch 59.1 (86144) - https://sketch.com -->
    <title>ubiquiti</title>
    <desc>Created with Sketch.</desc>
    <g id="Page-1" stroke="none" stroke-width="1" fill="none" fill-rule="evenodd">
        <g id="ubiquiti" transform="translate(0.092233, -0.500000)">
            <rect id="Rectangle" fill="#009FE0" x="0.0535036846" y="0.5" width="167.708527" height="167.708527" rx="32"></rect>
            <path d="M120.298717,89.0606882 L122.186989,82.9037947 L122.186989,40.7341139 C100.130222,40.7341139 97.8343556,49.19132 97.8343556,57.2676109 L97.8343556,103.576965 C97.8343556,105.9751 97.6023975,108.517005 97.1155079,111.01074 C108.809752,108.883099 116.439913,101.654603 120.298717,89.0606882" id="Path" fill="#FFFFFF" fill-rule="nonzero"></path>
            <polygon id="Path" fill="#FFFFFF" fill-rule="nonzero" points="63.8453839 50.3617819 58.9720412 50.3617819 58.9720412 45.5484667 63.8453839 45.5484667"></polygon>
            <polygon id="Path" fill="#FFFFFF" fill-rule="nonzero" points="68.7150212 57.6362242 63.846125 57.6362242 63.846125 52.8199446 68.7150212 52.8199446"></polygon>
            <polygon id="Path" fill="#FFFFFF" fill-rule="nonzero" points="63.8172229 63.6945539 59.0009433 63.6945539 59.0009433 58.8782744 63.8172229 58.8782744"></polygon>
            <polygon id="Path" fill="#FFFFFF" fill-rule="nonzero" points="58.9483266 70.9156384 54.1342703 70.9156384 54.1342703 66.0986178 58.9483266 66.0986178"></polygon>
            <polygon id="Path" fill="#FFFFFF" fill-rule="nonzero" points="49.2349898 45.5484667 44.3675757 45.5484667 44.3675757 40.6832758 49.2349898 40.6832758"></polygon>
            <path d="M88.1757846,113.610004 C81.6809586,113.315054 76.6838555,111.666151 72.8124531,109.280614 L72.8124531,109.280614 C75.4336534,120.662863 85.2396252,126.251348 85.7131754,126.515173 L85.7131754,126.515173 L88.6041289,128.109977 C110.719441,126.632263 123.668334,112.353132 123.668334,93.6845833 L123.668334,93.6845833 L123.668334,89.6375449 C118.408147,106.789844 106.174397,114.420746 88.1757846,113.610004" id="path56" fill="#FFFFFF" fill-rule="nonzero"></path>
            <path d="M54.1085548,75.7265822 L58.9722635,75.7265822 L58.9722635,86.4522344 L63.8470884,86.4522344 L63.8470884,68.507721 L68.7145025,68.507721 L68.7145025,103.576372 C68.7145025,120.217326 83.2774675,128.246188 83.2774675,128.246188 C58.8129313,128.246188 44.367057,113.414211 44.367057,93.6814708 L44.367057,53.9995959 L49.2329889,53.9995959 L49.2329889,80.5406385 L54.1078138,80.5406385 L54.1078138,75.7265822 L54.1085548,75.7265822 Z" id="Path" fill="#FFFFFF" fill-rule="nonzero"></path>
            <polygon id="Path" fill="#FFFFFF" fill-rule="nonzero" points="58.9438802 55.2277138 54.1342703 55.2277138 54.1342703 50.4106932 58.9438802 50.4106932"></polygon>
        </g>
    </g>
</svg>