<?xml version="1.0" encoding="UTF-8"?>
<svg width="650px" height="521px" viewBox="0 0 650 521" version="1.1" xmlns="http://www.w3.org/2000/svg" xmlns:xlink="http://www.w3.org/1999/xlink">
    <title>pattern</title>
    <g id="Symbols" stroke="none" stroke-width="1" fill="none" fill-rule="evenodd">
        <g id="cta/b--cta-a--second/desktop" transform="translate(-778.000000, -18.000000)">
            <g id="pattern" transform="translate(778.845304, 18.000000)">
                <path d="M38.480663,31.8103448 L45.6740331,31.8103448 C46.2263179,31.8103448 46.6740331,32.2580601 46.6740331,32.8103448 L46.6740331,38 C46.6740331,39.6568542 45.3308874,41 43.6740331,41 L38.480663,41 C37.9283782,41 37.480663,40.5522847 37.480663,40 L37.480663,32.8103448 C37.480663,32.2580601 37.9283782,31.8103448 38.480663,31.8103448 Z" id="Rectangle-Copy-9" fill="#F34265"/>
                <ellipse id="Oval-Copy-3" fill="#FF9900" cx="4.59668508" cy="4.59482759" rx="4.59668508" ry="4.59482759"/>
                <ellipse id="Oval-Copy-7" fill="#1EA7ED" cx="4.59668508" cy="163.405172" rx="4.59668508" ry="4.59482759"/>
                <ellipse id="Oval-Copy-19" fill="#E72D32" transform="translate(79.558011, 195.594828) scale(-1, 1) translate(-79.558011, -195.594828) " cx="79.558011" cy="195.594828" rx="4.59668508" ry="4.59482759"/>
                <ellipse id="Oval-Copy-5" fill="#544CF1" cx="79.558011" cy="292.405172" rx="4.59668508" ry="4.59482759"/>
                <ellipse id="Oval-Copy-7" fill="#1EA7ED" cx="4.59668508" cy="419.405172" rx="4.59668508" ry="4.59482759"/>
                <path d="M38.480663,351.810345 L45.6740331,351.810345 C46.2263179,351.810345 46.6740331,352.25806 46.6740331,352.810345 L46.6740331,358 C46.6740331,359.656854 45.3308874,361 43.6740331,361 L38.480663,361 C37.9283782,361 37.480663,360.552285 37.480663,360 L37.480663,352.810345 C37.480663,352.25806 37.9283782,351.810345 38.480663,351.810345 Z" id="Rectangle-Copy-20" fill="#FC551F" transform="translate(42.077348, 356.405172) scale(-1, 1) translate(-42.077348, -356.405172) "/>
                <path d="M452.480663,31.8103448 L459.674033,31.8103448 C460.226318,31.8103448 460.674033,32.2580601 460.674033,32.8103448 L460.674033,38 C460.674033,39.6568542 459.330887,41 457.674033,41 L452.480663,41 C451.928378,41 451.480663,40.5522847 451.480663,40 L451.480663,32.8103448 C451.480663,32.2580601 451.928378,31.8103448 452.480663,31.8103448 Z" id="Rectangle-Copy-9" fill="#F34265"/>
                <path d="M340.038674,31.8103448 L347.232044,31.8103448 C347.784329,31.8103448 348.232044,32.2580601 348.232044,32.8103448 L348.232044,38 C348.232044,39.6568542 346.888898,41 345.232044,41 L340.038674,41 C339.486389,41 339.038674,40.5522847 339.038674,40 L339.038674,32.8103448 C339.038674,32.2580601 339.486389,31.8103448 340.038674,31.8103448 Z" id="Rectangle-Copy-7" fill="#9341D9"/>
                <ellipse id="Oval-Copy-6" fill="#1EA7ED" cx="268.674033" cy="36.4051724" rx="4.59668508" ry="4.59482759"/>
                <ellipse id="Oval-Copy-20" fill="#1EA7ED" cx="568.674033" cy="36.4051724" rx="4.59668508" ry="4.59482759"/>
                <ellipse id="Oval-Copy-28" fill="#FF9900" cx="643.712707" cy="36.4051724" rx="4.59668508" ry="4.59482759"/>
                <ellipse id="Oval-Copy-9" fill="#E72D32" cx="306.154696" cy="36.4051724" rx="4.59668508" ry="4.59482759"/>
                <path d="M602.635359,31.8103448 L609.828729,31.8103448 C610.381014,31.8103448 610.828729,32.2580601 610.828729,32.8103448 L610.828729,38 C610.828729,39.6568542 609.485584,41 607.828729,41 L602.635359,41 C602.083074,41 601.635359,40.5522847 601.635359,40 L601.635359,32.8103448 C601.635359,32.2580601 602.083074,31.8103448 602.635359,31.8103448 Z" id="Rectangle-Copy-50" fill="#FC551F"/>
                <path d="M265.077348,7.81597009e-14 L272.270718,7.81597009e-14 C272.823003,7.79472256e-14 273.270718,0.44771525 273.270718,1 L273.270718,6.18965517 C273.270718,7.84650942 271.927572,9.18965517 270.270718,9.18965517 L265.077348,9.18965517 C264.525063,9.18965517 264.077348,8.74193992 264.077348,8.18965517 L264.077348,1 C264.077348,0.44771525 264.525063,7.78170648e-14 265.077348,7.81597009e-14 Z" id="Rectangle-Copy-8" fill="#F34265"/>
                <path d="M565.077348,511 L572.270718,511 C572.823003,511 573.270718,511.447715 573.270718,512 L573.270718,517.189655 C573.270718,518.846509 571.927572,520.189655 570.270718,520.189655 L565.077348,520.189655 C564.525063,520.189655 564.077348,519.74194 564.077348,519.189655 L564.077348,512 C564.077348,511.447715 564.525063,511 565.077348,511 Z" id="Rectangle-Copy-116" fill="#F34265"/>
                <path d="M602.635359,7.81597009e-14 L609.828729,7.81597009e-14 C610.381014,7.7725181e-14 610.828729,0.44771525 610.828729,1 L610.828729,6.18965517 C610.828729,7.84650942 609.485584,9.18965517 607.828729,9.18965517 L602.635359,9.18965517 C602.083074,9.18965517 601.635359,8.74193992 601.635359,8.18965517 L601.635359,1 C601.635359,0.44771525 602.083074,7.77060425e-14 602.635359,7.81597009e-14 Z" id="Rectangle-Copy-51" fill="#9341D9"/>
                <ellipse id="Oval-Copy-4" fill="#1EA7ED" cx="493.558011" cy="4.59482759" rx="4.59668508" ry="4.59482759"/>
                <ellipse id="Oval-Copy-78" fill="#1EA7ED" cx="493.558011" cy="515.594828" rx="4.59668508" ry="4.59482759"/>
                <ellipse id="Oval-Copy-79" fill="#FF9900" cx="231.19337" cy="515.594828" rx="4.59668508" ry="4.59482759"/>
                <ellipse id="Oval-Copy-21" fill="#FF9900" cx="531.19337" cy="4.59482759" rx="4.59668508" ry="4.59482759"/>
                <ellipse id="Oval-Copy-80" fill="#FF9900" cx="531.19337" cy="515.594828" rx="4.59668508" ry="4.59482759"/>
                <ellipse id="Oval-Copy-3" fill="#FF9900" cx="418.596685" cy="4.59482759" rx="4.59668508" ry="4.59482759"/>
                <ellipse id="Oval-Copy-2" fill="#E72D32" cx="118.751381" cy="4.59482759" rx="4.59668508" ry="4.59482759"/>
                <path d="M190.116022,511 L197.309392,511 C197.861677,511 198.309392,511.447715 198.309392,512 L198.309392,517.189655 C198.309392,518.846509 196.966247,520.189655 195.309392,520.189655 L190.116022,520.189655 C189.563737,520.189655 189.116022,519.74194 189.116022,519.189655 L189.116022,512 C189.116022,511.447715 189.563737,511 190.116022,511 Z" id="Rectangle-Copy-119" fill="#1AC99B"/>
                <path d="M640.116022,7.81597009e-14 L647.309392,7.81597009e-14 C647.861677,7.7725181e-14 648.309392,0.44771525 648.309392,1 L648.309392,6.18965517 C648.309392,7.84650942 646.966247,9.18965517 645.309392,9.18965517 L640.116022,9.18965517 C639.563737,9.18965517 639.116022,8.74193992 639.116022,8.18965517 L639.116022,1 C639.116022,0.44771525 639.563737,7.77060425e-14 640.116022,7.81597009e-14 Z" id="Rectangle-Copy-52" fill="#1AC99B"/>
                <path d="M640.116022,511 L647.309392,511 C647.861677,511 648.309392,511.447715 648.309392,512 L648.309392,517.189655 C648.309392,518.846509 646.966247,520.189655 645.309392,520.189655 L640.116022,520.189655 C639.563737,520.189655 639.116022,519.74194 639.116022,519.189655 L639.116022,512 C639.116022,511.447715 639.563737,511 640.116022,511 Z" id="Rectangle-Copy-120" fill="#1AC99B"/>
                <path d="M452.480663,7.81597009e-14 L459.674033,7.81597009e-14 C460.226318,7.79472256e-14 460.674033,0.44771525 460.674033,1 L460.674033,6.18965517 C460.674033,7.84650942 459.330887,9.18965517 457.674033,9.18965517 L452.480663,9.18965517 C451.928378,9.18965517 451.480663,8.74193992 451.480663,8.18965517 L451.480663,1 C451.480663,0.44771525 451.928378,7.78170648e-14 452.480663,7.81597009e-14 Z" id="Rectangle-Copy-3" fill="#1AC99B"/>
                <path d="M377.519337,7.81597009e-14 L384.712707,7.81597009e-14 C385.264992,7.79472256e-14 385.712707,0.44771525 385.712707,1 L385.712707,6.18965517 C385.712707,7.84650942 384.369561,9.18965517 382.712707,9.18965517 L377.519337,9.18965517 C376.967052,9.18965517 376.519337,8.74193992 376.519337,8.18965517 L376.519337,1 C376.519337,0.44771525 376.967052,7.78170648e-14 377.519337,7.81597009e-14 Z" id="Rectangle-Copy-14" fill="#FC551F"/>
                <path d="M452.480663,158.810345 L459.674033,158.810345 C460.226318,158.810345 460.674033,159.25806 460.674033,159.810345 L460.674033,165 C460.674033,166.656854 459.330887,168 457.674033,168 L452.480663,168 C451.928378,168 451.480663,167.552285 451.480663,167 L451.480663,159.810345 C451.480663,159.25806 451.928378,158.810345 452.480663,158.810345 Z" id="Rectangle-Copy-9" fill="#F34265"/>
                <path d="M340.038674,158.810345 L347.232044,158.810345 C347.784329,158.810345 348.232044,159.25806 348.232044,159.810345 L348.232044,165 C348.232044,166.656854 346.888898,168 345.232044,168 L340.038674,168 C339.486389,168 339.038674,167.552285 339.038674,167 L339.038674,159.810345 C339.038674,159.25806 339.486389,158.810345 340.038674,158.810345 Z" id="Rectangle-Copy-7" fill="#9341D9"/>
                <ellipse id="Oval-Copy-5" fill="#544CF1" cx="493.558011" cy="163.405172" rx="4.59668508" ry="4.59482759"/>
                <ellipse id="Oval-Copy-6" fill="#1EA7ED" cx="268.674033" cy="163.405172" rx="4.59668508" ry="4.59482759"/>
                <ellipse id="Oval-Copy-22" fill="#1EA7ED" cx="568.674033" cy="163.405172" rx="4.59668508" ry="4.59482759"/>
                <ellipse id="Oval-Copy-7" fill="#1EA7ED" cx="418.596685" cy="163.405172" rx="4.59668508" ry="4.59482759"/>
                <ellipse id="Oval-Copy-9" fill="#E72D32" cx="306.154696" cy="163.405172" rx="4.59668508" ry="4.59482759"/>
                <path d="M377.519337,158.810345 L384.712707,158.810345 C385.264992,158.810345 385.712707,159.25806 385.712707,159.810345 L385.712707,165 C385.712707,166.656854 384.369561,168 382.712707,168 L377.519337,168 C376.967052,168 376.519337,167.552285 376.519337,167 L376.519337,159.810345 C376.519337,159.25806 376.967052,158.810345 377.519337,158.810345 Z" id="Rectangle-Copy-10" fill="#1AC99B"/>
                <path d="M527.596685,158.810345 L534.790055,158.810345 C535.34234,158.810345 535.790055,159.25806 535.790055,159.810345 L535.790055,165 C535.790055,166.656854 534.446909,168 532.790055,168 L527.596685,168 C527.0444,168 526.596685,167.552285 526.596685,167 L526.596685,159.810345 C526.596685,159.25806 527.0444,158.810345 527.596685,158.810345 Z" id="Rectangle-Copy-28" fill="#1AC99B"/>
                <path d="M602.635359,158.810345 L609.828729,158.810345 C610.381014,158.810345 610.828729,159.25806 610.828729,159.810345 L610.828729,165 C610.828729,166.656854 609.485584,168 607.828729,168 L602.635359,168 C602.083074,168 601.635359,167.552285 601.635359,167 L601.635359,159.810345 C601.635359,159.25806 602.083074,158.810345 602.635359,158.810345 Z" id="Rectangle-Copy-53" fill="#FC551F"/>
                <ellipse id="Oval-Copy-4" fill="#1EA7ED" cx="493.558011" cy="131.594828" rx="4.59668508" ry="4.59482759"/>
                <ellipse id="Oval-Copy-23" fill="#FF9900" cx="531.19337" cy="131.594828" rx="4.59668508" ry="4.59482759"/>
                <ellipse id="Oval-Copy-3" fill="#FF9900" cx="418.596685" cy="131.594828" rx="4.59668508" ry="4.59482759"/>
                <ellipse id="Oval-Copy-2" fill="#E72D32" cx="118.751381" cy="131.594828" rx="4.59668508" ry="4.59482759"/>
                <path d="M640.116022,127 L647.309392,127 C647.861677,127 648.309392,127.447715 648.309392,128 L648.309392,133.189655 C648.309392,134.846509 646.966247,136.189655 645.309392,136.189655 L640.116022,136.189655 C639.563737,136.189655 639.116022,135.74194 639.116022,135.189655 L639.116022,128 C639.116022,127.447715 639.563737,127 640.116022,127 Z" id="Rectangle-Copy-55" fill="#1AC99B"/>
                <path d="M452.480663,127 L459.674033,127 C460.226318,127 460.674033,127.447715 460.674033,128 L460.674033,133.189655 C460.674033,134.846509 459.330887,136.189655 457.674033,136.189655 L452.480663,136.189655 C451.928378,136.189655 451.480663,135.74194 451.480663,135.189655 L451.480663,128 C451.480663,127.447715 451.928378,127 452.480663,127 Z" id="Rectangle-Copy-3" fill="#1AC99B"/>
                <path d="M565.077348,64 L572.270718,64 C572.823003,64 573.270718,64.4477153 573.270718,65 L573.270718,70.1896552 C573.270718,71.8465094 571.927572,73.1896552 570.270718,73.1896552 L565.077348,73.1896552 C564.525063,73.1896552 564.077348,72.7419399 564.077348,72.1896552 L564.077348,65 C564.077348,64.4477153 564.525063,64 565.077348,64 Z" id="Rectangle-Copy-30" fill="#544CF1" transform="translate(568.674033, 68.594828) scale(-1, 1) translate(-568.674033, -68.594828) "/>
                <path d="M489.961326,95.8103448 L497.154696,95.8103448 C497.706981,95.8103448 498.154696,96.2580601 498.154696,96.8103448 L498.154696,102 C498.154696,103.656854 496.81155,105 495.154696,105 L489.961326,105 C489.409041,105 488.961326,104.552285 488.961326,104 L488.961326,96.8103448 C488.961326,96.2580601 489.409041,95.8103448 489.961326,95.8103448 Z" id="Rectangle-Copy-13" fill="#544CF1" transform="translate(493.558011, 100.405172) scale(-1, 1) translate(-493.558011, -100.405172) "/>
                <path d="M265.077348,95.8103448 L272.270718,95.8103448 C272.823003,95.8103448 273.270718,96.2580601 273.270718,96.8103448 L273.270718,102 C273.270718,103.656854 271.927572,105 270.270718,105 L265.077348,105 C264.525063,105 264.077348,104.552285 264.077348,104 L264.077348,96.8103448 C264.077348,96.2580601 264.525063,95.8103448 265.077348,95.8103448 Z" id="Rectangle-Copy-17" fill="#9341D9" transform="translate(268.674033, 100.405172) scale(-1, 1) translate(-268.674033, -100.405172) "/>
                <path d="M565.077348,95.8103448 L572.270718,95.8103448 C572.823003,95.8103448 573.270718,96.2580601 573.270718,96.8103448 L573.270718,102 C573.270718,103.656854 571.927572,105 570.270718,105 L565.077348,105 C564.525063,105 564.077348,104.552285 564.077348,104 L564.077348,96.8103448 C564.077348,96.2580601 564.525063,95.8103448 565.077348,95.8103448 Z" id="Rectangle-Copy-31" fill="#9341D9" transform="translate(568.674033, 100.405172) scale(-1, 1) translate(-568.674033, -100.405172) "/>
                <ellipse id="Oval-Copy-12" fill="#1EA7ED" transform="translate(193.712707, 100.405172) scale(-1, 1) translate(-193.712707, -100.405172) " cx="193.712707" cy="100.405172" rx="4.59668508" ry="4.59482759"/>
                <ellipse id="Oval-Copy-30" fill="#1EA7ED" transform="translate(643.712707, 100.405172) scale(-1, 1) translate(-643.712707, -100.405172) " cx="643.712707" cy="100.405172" rx="4.59668508" ry="4.59482759"/>
                <path d="M340.038674,64 L347.232044,64 C347.784329,64 348.232044,64.4477153 348.232044,65 L348.232044,70.1896552 C348.232044,71.8465094 346.888898,73.1896552 345.232044,73.1896552 L340.038674,73.1896552 C339.486389,73.1896552 339.038674,72.7419399 339.038674,72.1896552 L339.038674,65 C339.038674,64.4477153 339.486389,64 340.038674,64 Z" id="Rectangle-Copy-21" fill="#F34265" transform="translate(343.635359, 68.594828) scale(-1, 1) translate(-343.635359, -68.594828) "/>
                <ellipse id="Oval-Copy-15" fill="#1EA7ED" transform="translate(306.154696, 68.594828) scale(-1, 1) translate(-306.154696, -68.594828) " cx="306.154696" cy="68.5948276" rx="4.59668508" ry="4.59482759"/>
                <ellipse id="Oval-Copy-31" fill="#FF9900" transform="translate(643.712707, 68.594828) scale(-1, 1) translate(-643.712707, -68.594828) " cx="643.712707" cy="68.5948276" rx="4.59668508" ry="4.59482759"/>
                <ellipse id="Oval-Copy-19" fill="#E72D32" transform="translate(493.558011, 68.594828) scale(-1, 1) translate(-493.558011, -68.594828) " cx="493.558011" cy="68.5948276" rx="4.59668508" ry="4.59482759"/>
                <path d="M415,64 L422.19337,64 C422.745655,64 423.19337,64.4477153 423.19337,65 L423.19337,70.1896552 C423.19337,71.8465094 421.850224,73.1896552 420.19337,73.1896552 L415,73.1896552 C414.447715,73.1896552 414,72.7419399 414,72.1896552 L414,65 C414,64.4477153 414.447715,64 415,64 Z" id="Rectangle-Copy-23" fill="#1AC99B" transform="translate(418.596685, 68.594828) scale(-1, 1) translate(-418.596685, -68.594828) "/>
                <path d="M602.635359,64 L609.828729,64 C610.381014,64 610.828729,64.4477153 610.828729,65 L610.828729,70.1896552 C610.828729,71.8465094 609.485584,73.1896552 607.828729,73.1896552 L602.635359,73.1896552 C602.083074,73.1896552 601.635359,72.7419399 601.635359,72.1896552 L601.635359,65 C601.635359,64.4477153 602.083074,64 602.635359,64 Z" id="Rectangle-Copy-57" fill="#1AC99B" transform="translate(606.232044, 68.594828) scale(-1, 1) translate(-606.232044, -68.594828) "/>
                <path d="M227.596685,64 L234.790055,64 C235.34234,64 235.790055,64.4477153 235.790055,65 L235.790055,70.1896552 C235.790055,71.8465094 234.446909,73.1896552 232.790055,73.1896552 L227.596685,73.1896552 C227.0444,73.1896552 226.596685,72.7419399 226.596685,72.1896552 L226.596685,65 C226.596685,64.4477153 227.0444,64 227.596685,64 Z" id="Rectangle-Copy-25" fill="#FC551F" transform="translate(231.193370, 68.594828) scale(-1, 1) translate(-231.193370, -68.594828) "/>
                <path d="M527.596685,64 L534.790055,64 C535.34234,64 535.790055,64.4477153 535.790055,65 L535.790055,70.1896552 C535.790055,71.8465094 534.446909,73.1896552 532.790055,73.1896552 L527.596685,73.1896552 C527.0444,73.1896552 526.596685,72.7419399 526.596685,72.1896552 L526.596685,65 C526.596685,64.4477153 527.0444,64 527.596685,64 Z" id="Rectangle-Copy-33" fill="#FC551F" transform="translate(531.193370, 68.594828) scale(-1, 1) translate(-531.193370, -68.594828) "/>
                <path d="M565.077348,191 L572.270718,191 C572.823003,191 573.270718,191.447715 573.270718,192 L573.270718,197.189655 C573.270718,198.846509 571.927572,200.189655 570.270718,200.189655 L565.077348,200.189655 C564.525063,200.189655 564.077348,199.74194 564.077348,199.189655 L564.077348,192 C564.077348,191.447715 564.525063,191 565.077348,191 Z" id="Rectangle-Copy-34" fill="#544CF1" transform="translate(568.674033, 195.594828) scale(-1, 1) translate(-568.674033, -195.594828) "/>
                <path d="M602.635359,222.810345 L609.828729,222.810345 C610.381014,222.810345 610.828729,223.25806 610.828729,223.810345 L610.828729,229 C610.828729,230.656854 609.485584,232 607.828729,232 L602.635359,232 C602.083074,232 601.635359,231.552285 601.635359,231 L601.635359,223.810345 C601.635359,223.25806 602.083074,222.810345 602.635359,222.810345 Z" id="Rectangle-Copy-58" fill="#F34265" transform="translate(606.232044, 227.405172) scale(-1, 1) translate(-606.232044, -227.405172) "/>
                <path d="M265.077348,222.810345 L272.270718,222.810345 C272.823003,222.810345 273.270718,223.25806 273.270718,223.810345 L273.270718,229 C273.270718,230.656854 271.927572,232 270.270718,232 L265.077348,232 C264.525063,232 264.077348,231.552285 264.077348,231 L264.077348,223.810345 C264.077348,223.25806 264.525063,222.810345 265.077348,222.810345 Z" id="Rectangle-Copy-17" fill="#9341D9" transform="translate(268.674033, 227.405172) scale(-1, 1) translate(-268.674033, -227.405172) "/>
                <ellipse id="Oval-Copy-32" fill="#1EA7ED" transform="translate(643.712707, 227.405172) scale(-1, 1) translate(-643.712707, -227.405172) " cx="643.712707" cy="227.405172" rx="4.59668508" ry="4.59482759"/>
                <path d="M452.480663,222.810345 L459.674033,222.810345 C460.226318,222.810345 460.674033,223.25806 460.674033,223.810345 L460.674033,229 C460.674033,230.656854 459.330887,232 457.674033,232 L452.480663,232 C451.928378,232 451.480663,231.552285 451.480663,231 L451.480663,223.810345 C451.480663,223.25806 451.928378,222.810345 452.480663,222.810345 Z" id="Rectangle-Copy-20" fill="#FC551F" transform="translate(456.077348, 227.405172) scale(-1, 1) translate(-456.077348, -227.405172) "/>
                <path d="M340.038674,191 L347.232044,191 C347.784329,191 348.232044,191.447715 348.232044,192 L348.232044,197.189655 C348.232044,198.846509 346.888898,200.189655 345.232044,200.189655 L340.038674,200.189655 C339.486389,200.189655 339.038674,199.74194 339.038674,199.189655 L339.038674,192 C339.038674,191.447715 339.486389,191 340.038674,191 Z" id="Rectangle-Copy-21" fill="#F34265" transform="translate(343.635359, 195.594828) scale(-1, 1) translate(-343.635359, -195.594828) "/>
                <ellipse id="Oval-Copy-15" fill="#1EA7ED" transform="translate(306.154696, 195.594828) scale(-1, 1) translate(-306.154696, -195.594828) " cx="306.154696" cy="195.594828" rx="4.59668508" ry="4.59482759"/>
                <ellipse id="Oval-Copy-33" fill="#FF9900" transform="translate(643.712707, 195.594828) scale(-1, 1) translate(-643.712707, -195.594828) " cx="643.712707" cy="195.594828" rx="4.59668508" ry="4.59482759"/>
                <path d="M152.635359,191 L159.828729,191 C160.381014,191 160.828729,191.447715 160.828729,192 L160.828729,197.189655 C160.828729,198.846509 159.485584,200.189655 157.828729,200.189655 L152.635359,200.189655 C152.083074,200.189655 151.635359,199.74194 151.635359,199.189655 L151.635359,192 C151.635359,191.447715 152.083074,191 152.635359,191 Z" id="Rectangle-Copy-24" fill="#1AC99B" transform="translate(156.232044, 195.594828) scale(-1, 1) translate(-156.232044, -195.594828) "/>
                <path d="M602.635359,191 L609.828729,191 C610.381014,191 610.828729,191.447715 610.828729,192 L610.828729,197.189655 C610.828729,198.846509 609.485584,200.189655 607.828729,200.189655 L602.635359,200.189655 C602.083074,200.189655 601.635359,199.74194 601.635359,199.189655 L601.635359,192 C601.635359,191.447715 602.083074,191 602.635359,191 Z" id="Rectangle-Copy-59" fill="#1AC99B" transform="translate(606.232044, 195.594828) scale(-1, 1) translate(-606.232044, -195.594828) "/>
                <path d="M227.596685,191 L234.790055,191 C235.34234,191 235.790055,191.447715 235.790055,192 L235.790055,197.189655 C235.790055,198.846509 234.446909,200.189655 232.790055,200.189655 L227.596685,200.189655 C227.0444,200.189655 226.596685,199.74194 226.596685,199.189655 L226.596685,192 C226.596685,191.447715 227.0444,191 227.596685,191 Z" id="Rectangle-Copy-25" fill="#FC551F" transform="translate(231.193370, 195.594828) scale(-1, 1) translate(-231.193370, -195.594828) "/>
                <path d="M340.038674,256 L347.232044,256 C347.784329,256 348.232044,256.447715 348.232044,257 L348.232044,262.189655 C348.232044,263.846509 346.888898,265.189655 345.232044,265.189655 L340.038674,265.189655 C339.486389,265.189655 339.038674,264.74194 339.038674,264.189655 L339.038674,257 C339.038674,256.447715 339.486389,256 340.038674,256 Z" id="Rectangle-Copy-4" fill="#544CF1"/>
                <path d="M452.480663,287.810345 L459.674033,287.810345 C460.226318,287.810345 460.674033,288.25806 460.674033,288.810345 L460.674033,294 C460.674033,295.656854 459.330887,297 457.674033,297 L452.480663,297 C451.928378,297 451.480663,296.552285 451.480663,296 L451.480663,288.810345 C451.480663,288.25806 451.928378,287.810345 452.480663,287.810345 Z" id="Rectangle-Copy-9" fill="#F34265"/>
                <ellipse id="Oval-Copy-5" fill="#544CF1" cx="493.558011" cy="292.405172" rx="4.59668508" ry="4.59482759"/>
                <ellipse id="Oval-Copy-6" fill="#1EA7ED" cx="268.674033" cy="292.405172" rx="4.59668508" ry="4.59482759"/>
                <ellipse id="Oval-Copy-24" fill="#1EA7ED" cx="568.674033" cy="292.405172" rx="4.59668508" ry="4.59482759"/>
                <ellipse id="Oval-Copy-34" fill="#FF9900" cx="643.712707" cy="292.405172" rx="4.59668508" ry="4.59482759"/>
                <path d="M565.077348,256 L572.270718,256 C572.823003,256 573.270718,256.447715 573.270718,257 L573.270718,262.189655 C573.270718,263.846509 571.927572,265.189655 570.270718,265.189655 L565.077348,265.189655 C564.525063,265.189655 564.077348,264.74194 564.077348,264.189655 L564.077348,257 C564.077348,256.447715 564.525063,256 565.077348,256 Z" id="Rectangle-Copy-39" fill="#F34265"/>
                <path d="M602.635359,256 L609.828729,256 C610.381014,256 610.828729,256.447715 610.828729,257 L610.828729,262.189655 C610.828729,263.846509 609.485584,265.189655 607.828729,265.189655 L602.635359,265.189655 C602.083074,265.189655 601.635359,264.74194 601.635359,264.189655 L601.635359,257 C601.635359,256.447715 602.083074,256 602.635359,256 Z" id="Rectangle-Copy-61" fill="#9341D9"/>
                <ellipse id="Oval" fill="#1EA7ED" cx="306.154696" cy="260.594828" rx="4.59668508" ry="4.59482759"/>
                <ellipse id="Oval-Copy-4" fill="#1EA7ED" cx="493.558011" cy="260.594828" rx="4.59668508" ry="4.59482759"/>
                <ellipse id="Oval-Copy-25" fill="#FF9900" cx="531.19337" cy="260.594828" rx="4.59668508" ry="4.59482759"/>
                <path d="M640.116022,256 L647.309392,256 C647.861677,256 648.309392,256.447715 648.309392,257 L648.309392,262.189655 C648.309392,263.846509 646.966247,265.189655 645.309392,265.189655 L640.116022,265.189655 C639.563737,265.189655 639.116022,264.74194 639.116022,264.189655 L639.116022,257 C639.116022,256.447715 639.563737,256 640.116022,256 Z" id="Rectangle-Copy-62" fill="#1AC99B"/>
                <path d="M452.480663,256 L459.674033,256 C460.226318,256 460.674033,256.447715 460.674033,257 L460.674033,262.189655 C460.674033,263.846509 459.330887,265.189655 457.674033,265.189655 L452.480663,265.189655 C451.928378,265.189655 451.480663,264.74194 451.480663,264.189655 L451.480663,257 C451.480663,256.447715 451.928378,256 452.480663,256 Z" id="Rectangle-Copy-3" fill="#1AC99B"/>
                <path d="M377.519337,256 L384.712707,256 C385.264992,256 385.712707,256.447715 385.712707,257 L385.712707,262.189655 C385.712707,263.846509 384.369561,265.189655 382.712707,265.189655 L377.519337,265.189655 C376.967052,265.189655 376.519337,264.74194 376.519337,264.189655 L376.519337,257 C376.519337,256.447715 376.967052,256 377.519337,256 Z" id="Rectangle-Copy-14" fill="#FC551F"/>
                <path d="M452.480663,414.810345 L459.674033,414.810345 C460.226318,414.810345 460.674033,415.25806 460.674033,415.810345 L460.674033,421 C460.674033,422.656854 459.330887,424 457.674033,424 L452.480663,424 C451.928378,424 451.480663,423.552285 451.480663,423 L451.480663,415.810345 C451.480663,415.25806 451.928378,414.810345 452.480663,414.810345 Z" id="Rectangle-Copy-9" fill="#F34265"/>
                <ellipse id="Oval-Copy-5" fill="#544CF1" cx="493.558011" cy="419.405172" rx="4.59668508" ry="4.59482759"/>
                <ellipse id="Oval-Copy-26" fill="#1EA7ED" cx="568.674033" cy="419.405172" rx="4.59668508" ry="4.59482759"/>
                <ellipse id="Oval-Copy-7" fill="#1EA7ED" cx="418.596685" cy="419.405172" rx="4.59668508" ry="4.59482759"/>
                <ellipse id="Oval-Copy-35" fill="#FF9900" cx="643.712707" cy="419.405172" rx="4.59668508" ry="4.59482759"/>
                <ellipse id="Oval-Copy-9" fill="#E72D32" cx="306.154696" cy="419.405172" rx="4.59668508" ry="4.59482759"/>
                <path d="M527.596685,414.810345 L534.790055,414.810345 C535.34234,414.810345 535.790055,415.25806 535.790055,415.810345 L535.790055,421 C535.790055,422.656854 534.446909,424 532.790055,424 L527.596685,424 C527.0444,424 526.596685,423.552285 526.596685,423 L526.596685,415.810345 C526.596685,415.25806 527.0444,414.810345 527.596685,414.810345 Z" id="Rectangle-Copy-40" fill="#1AC99B"/>
                <path d="M602.635359,414.810345 L609.828729,414.810345 C610.381014,414.810345 610.828729,415.25806 610.828729,415.810345 L610.828729,421 C610.828729,422.656854 609.485584,424 607.828729,424 L602.635359,424 C602.083074,424 601.635359,423.552285 601.635359,423 L601.635359,415.810345 C601.635359,415.25806 602.083074,414.810345 602.635359,414.810345 Z" id="Rectangle-Copy-63" fill="#FC551F"/>
                <ellipse id="Oval" fill="#1EA7ED" cx="306.154696" cy="387.594828" rx="4.59668508" ry="4.59482759"/>
                <ellipse id="Oval-Copy-27" fill="#FF9900" cx="531.19337" cy="387.594828" rx="4.59668508" ry="4.59482759"/>
                <ellipse id="Oval-Copy-2" fill="#E72D32" cx="118.751381" cy="387.594828" rx="4.59668508" ry="4.59482759"/>
                <path d="M190.116022,383 L197.309392,383 C197.861677,383 198.309392,383.447715 198.309392,384 L198.309392,389.189655 C198.309392,390.846509 196.966247,392.189655 195.309392,392.189655 L190.116022,392.189655 C189.563737,392.189655 189.116022,391.74194 189.116022,391.189655 L189.116022,384 C189.116022,383.447715 189.563737,383 190.116022,383 Z" id="Rectangle-Copy-2" fill="#1AC99B"/>
                <path d="M640.116022,383 L647.309392,383 C647.861677,383 648.309392,383.447715 648.309392,384 L648.309392,389.189655 C648.309392,390.846509 646.966247,392.189655 645.309392,392.189655 L640.116022,392.189655 C639.563737,392.189655 639.116022,391.74194 639.116022,391.189655 L639.116022,384 C639.116022,383.447715 639.563737,383 640.116022,383 Z" id="Rectangle-Copy-65" fill="#1AC99B"/>
                <path d="M377.519337,383 L384.712707,383 C385.264992,383 385.712707,383.447715 385.712707,384 L385.712707,389.189655 C385.712707,390.846509 384.369561,392.189655 382.712707,392.189655 L377.519337,392.189655 C376.967052,392.189655 376.519337,391.74194 376.519337,391.189655 L376.519337,384 C376.519337,383.447715 376.967052,383 377.519337,383 Z" id="Rectangle-Copy-14" fill="#FC551F"/>
                <path d="M489.961326,351.810345 L497.154696,351.810345 C497.706981,351.810345 498.154696,352.25806 498.154696,352.810345 L498.154696,358 C498.154696,359.656854 496.81155,361 495.154696,361 L489.961326,361 C489.409041,361 488.961326,360.552285 488.961326,360 L488.961326,352.810345 C488.961326,352.25806 489.409041,351.810345 489.961326,351.810345 Z" id="Rectangle-Copy-13" fill="#544CF1" transform="translate(493.558011, 356.405172) scale(-1, 1) translate(-493.558011, -356.405172) "/>
                <path d="M152.635359,351.810345 L159.828729,351.810345 C160.381014,351.810345 160.828729,352.25806 160.828729,352.810345 L160.828729,358 C160.828729,359.656854 159.485584,361 157.828729,361 L152.635359,361 C152.083074,361 151.635359,360.552285 151.635359,360 L151.635359,352.810345 C151.635359,352.25806 152.083074,351.810345 152.635359,351.810345 Z" id="Rectangle-Copy-16" fill="#F34265" transform="translate(156.232044, 356.405172) scale(-1, 1) translate(-156.232044, -356.405172) "/>
                <path d="M602.635359,351.810345 L609.828729,351.810345 C610.381014,351.810345 610.828729,352.25806 610.828729,352.810345 L610.828729,358 C610.828729,359.656854 609.485584,361 607.828729,361 L602.635359,361 C602.083074,361 601.635359,360.552285 601.635359,360 L601.635359,352.810345 C601.635359,352.25806 602.083074,351.810345 602.635359,351.810345 Z" id="Rectangle-Copy-66" fill="#F34265" transform="translate(606.232044, 356.405172) scale(-1, 1) translate(-606.232044, -356.405172) "/>
                <ellipse id="Oval-Copy-11" fill="#1EA7ED" transform="translate(343.635359, 356.405172) scale(-1, 1) translate(-343.635359, -356.405172) " cx="343.635359" cy="356.405172" rx="4.59668508" ry="4.59482759"/>
                <path d="M527.596685,351.810345 L534.790055,351.810345 C535.34234,351.810345 535.790055,352.25806 535.790055,352.810345 L535.790055,358 C535.790055,359.656854 534.446909,361 532.790055,361 L527.596685,361 C527.0444,361 526.596685,360.552285 526.596685,360 L526.596685,352.810345 C526.596685,352.25806 527.0444,351.810345 527.596685,351.810345 Z" id="Rectangle-Copy-44" fill="#1AC99B" transform="translate(531.193370, 356.405172) scale(-1, 1) translate(-531.193370, -356.405172) "/>
                <path d="M452.480663,320 L459.674033,320 C460.226318,320 460.674033,320.447715 460.674033,321 L460.674033,326.189655 C460.674033,327.846509 459.330887,329.189655 457.674033,329.189655 L452.480663,329.189655 C451.928378,329.189655 451.480663,328.74194 451.480663,328.189655 L451.480663,321 C451.480663,320.447715 451.928378,320 452.480663,320 Z" id="Rectangle-Copy-22" fill="#9341D9" transform="translate(456.077348, 324.594828) scale(-1, 1) translate(-456.077348, -324.594828) "/>
                <ellipse id="Oval-Copy-17" fill="#FF9900" transform="translate(381.116022, 324.594828) scale(-1, 1) translate(-381.116022, -324.594828) " cx="381.116022" cy="324.594828" rx="4.59668508" ry="4.59482759"/>
                <ellipse id="Oval-Copy-18" fill="#FF9900" transform="translate(193.712707, 324.594828) scale(-1, 1) translate(-193.712707, -324.594828) " cx="193.712707" cy="324.594828" rx="4.59668508" ry="4.59482759"/>
                <path d="M602.635359,320 L609.828729,320 C610.381014,320 610.828729,320.447715 610.828729,321 L610.828729,326.189655 C610.828729,327.846509 609.485584,329.189655 607.828729,329.189655 L602.635359,329.189655 C602.083074,329.189655 601.635359,328.74194 601.635359,328.189655 L601.635359,321 C601.635359,320.447715 602.083074,320 602.635359,320 Z" id="Rectangle-Copy-67" fill="#1AC99B" transform="translate(606.232044, 324.594828) scale(-1, 1) translate(-606.232044, -324.594828) "/>
                <path d="M265.077348,447 L272.270718,447 C272.823003,447 273.270718,447.447715 273.270718,448 L273.270718,453.189655 C273.270718,454.846509 271.927572,456.189655 270.270718,456.189655 L265.077348,456.189655 C264.525063,456.189655 264.077348,455.74194 264.077348,455.189655 L264.077348,448 C264.077348,447.447715 264.525063,447 265.077348,447 Z" id="Rectangle-Copy-12" fill="#544CF1" transform="translate(268.674033, 451.594828) scale(-1, 1) translate(-268.674033, -451.594828) "/>
                <path d="M489.961326,478.810345 L497.154696,478.810345 C497.706981,478.810345 498.154696,479.25806 498.154696,479.810345 L498.154696,485 C498.154696,486.656854 496.81155,488 495.154696,488 L489.961326,488 C489.409041,488 488.961326,487.552285 488.961326,487 L488.961326,479.810345 C488.961326,479.25806 489.409041,478.810345 489.961326,478.810345 Z" id="Rectangle-Copy-13" fill="#544CF1" transform="translate(493.558011, 483.405172) scale(-1, 1) translate(-493.558011, -483.405172) "/>
                <path d="M602.635359,478.810345 L609.828729,478.810345 C610.381014,478.810345 610.828729,479.25806 610.828729,479.810345 L610.828729,485 C610.828729,486.656854 609.485584,488 607.828729,488 L602.635359,488 C602.083074,488 601.635359,487.552285 601.635359,487 L601.635359,479.810345 C601.635359,479.25806 602.083074,478.810345 602.635359,478.810345 Z" id="Rectangle-Copy-68" fill="#F34265" transform="translate(606.232044, 483.405172) scale(-1, 1) translate(-606.232044, -483.405172) "/>
                <ellipse id="Oval-Copy-10" fill="#544CF1" transform="translate(118.751381, 483.405172) scale(-1, 1) translate(-118.751381, -483.405172) " cx="118.751381" cy="483.405172" rx="4.59668508" ry="4.59482759"/>
                <ellipse id="Oval-Copy-11" fill="#1EA7ED" transform="translate(343.635359, 483.405172) scale(-1, 1) translate(-343.635359, -483.405172) " cx="343.635359" cy="483.405172" rx="4.59668508" ry="4.59482759"/>
                <ellipse id="Oval-Copy-14" fill="#E72D32" transform="translate(306.154696, 483.405172) scale(-1, 1) translate(-306.154696, -483.405172) " cx="306.154696" cy="483.405172" rx="4.59668508" ry="4.59482759"/>
                <path d="M377.519337,478.810345 L384.712707,478.810345 C385.264992,478.810345 385.712707,479.25806 385.712707,479.810345 L385.712707,485 C385.712707,486.656854 384.369561,488 382.712707,488 L377.519337,488 C376.967052,488 376.519337,487.552285 376.519337,487 L376.519337,479.810345 C376.519337,479.25806 376.967052,478.810345 377.519337,478.810345 Z" id="Rectangle-Copy-19" fill="#1AC99B" transform="translate(381.116022, 483.405172) scale(-1, 1) translate(-381.116022, -483.405172) "/>
                <path d="M340.038674,447 L347.232044,447 C347.784329,447 348.232044,447.447715 348.232044,448 L348.232044,453.189655 C348.232044,454.846509 346.888898,456.189655 345.232044,456.189655 L340.038674,456.189655 C339.486389,456.189655 339.038674,455.74194 339.038674,455.189655 L339.038674,448 C339.038674,447.447715 339.486389,447 340.038674,447 Z" id="Rectangle-Copy-21" fill="#F34265" transform="translate(343.635359, 451.594828) scale(-1, 1) translate(-343.635359, -451.594828) "/>
                <path d="M452.480663,447 L459.674033,447 C460.226318,447 460.674033,447.447715 460.674033,448 L460.674033,453.189655 C460.674033,454.846509 459.330887,456.189655 457.674033,456.189655 L452.480663,456.189655 C451.928378,456.189655 451.480663,455.74194 451.480663,455.189655 L451.480663,448 C451.480663,447.447715 451.928378,447 452.480663,447 Z" id="Rectangle-Copy-22" fill="#9341D9" transform="translate(456.077348, 451.594828) scale(-1, 1) translate(-456.077348, -451.594828) "/>
                <ellipse id="Oval-Copy-15" fill="#1EA7ED" transform="translate(306.154696, 451.594828) scale(-1, 1) translate(-306.154696, -451.594828) " cx="306.154696" cy="451.594828" rx="4.59668508" ry="4.59482759"/>
                <ellipse id="Oval-Copy-17" fill="#FF9900" transform="translate(381.116022, 451.594828) scale(-1, 1) translate(-381.116022, -451.594828) " cx="381.116022" cy="451.594828" rx="4.59668508" ry="4.59482759"/>
                <ellipse id="Oval-Copy-19" fill="#E72D32" transform="translate(493.558011, 451.594828) scale(-1, 1) translate(-493.558011, -451.594828) " cx="493.558011" cy="451.594828" rx="4.59668508" ry="4.59482759"/>
                <path d="M415,447 L422.19337,447 C422.745655,447 423.19337,447.447715 423.19337,448 L423.19337,453.189655 C423.19337,454.846509 421.850224,456.189655 420.19337,456.189655 L415,456.189655 C414.447715,456.189655 414,455.74194 414,455.189655 L414,448 C414,447.447715 414.447715,447 415,447 Z" id="Rectangle-Copy-23" fill="#1AC99B" transform="translate(418.596685, 451.594828) scale(-1, 1) translate(-418.596685, -451.594828) "/>
                <path d="M152.635359,447 L159.828729,447 C160.381014,447 160.828729,447.447715 160.828729,448 L160.828729,453.189655 C160.828729,454.846509 159.485584,456.189655 157.828729,456.189655 L152.635359,456.189655 C152.083074,456.189655 151.635359,455.74194 151.635359,455.189655 L151.635359,448 C151.635359,447.447715 152.083074,447 152.635359,447 Z" id="Rectangle-Copy-24" fill="#1AC99B" transform="translate(156.232044, 451.594828) scale(-1, 1) translate(-156.232044, -451.594828) "/>
                <path d="M602.635359,447 L609.828729,447 C610.381014,447 610.828729,447.447715 610.828729,448 L610.828729,453.189655 C610.828729,454.846509 609.485584,456.189655 607.828729,456.189655 L602.635359,456.189655 C602.083074,456.189655 601.635359,455.74194 601.635359,455.189655 L601.635359,448 C601.635359,447.447715 602.083074,447 602.635359,447 Z" id="Rectangle-Copy-69" fill="#1AC99B" transform="translate(606.232044, 451.594828) scale(-1, 1) translate(-606.232044, -451.594828) "/>
            </g>
        </g>
    </g>
</svg>