<?xml version="1.0" encoding="utf-8"?>
<!-- Generator: Adobe Illustrator 25.0.1, SVG Export Plug-In . SVG Version: 6.00 Build 0)  -->
<svg version="1.1" id="Layer_1" xmlns="http://www.w3.org/2000/svg" xmlns:xlink="http://www.w3.org/1999/xlink" x="0px" y="0px"
	 width="155px" height="49px" viewBox="0 0 155 49" enable-background="new 0 0 155 49" xml:space="preserve">
<path fill="#FFFFFF" d="M58.1,23.9c0,4,0,7.9,0,11.9c0,0.9-0.6,1.4-1.5,1.4c-0.3,0-0.5,0-0.8,0c-1,0-1.5-0.5-1.5-1.5
	c0-3.8,0-7.5,0-11.3c0-0.8,0-1.5-0.3-2.3c-0.2-0.4-0.4-0.7-0.8-0.7c-1.1,0-2.2,0-3.2,0c-0.1,0.2-0.1,0.4-0.1,0.6c0,4.5,0,9.1,0,13.6
	c0,1-0.5,1.5-1.5,1.5c-0.2,0-0.5,0-0.7,0c-0.9,0-1.5-0.6-1.5-1.4V21.5h-4.4c-0.1,0.2,0,0.4,0,0.6c0,4.6,0,9.1,0,13.7
	c0,0.9-0.6,1.4-1.5,1.4c-0.3,0-0.5,0-0.8,0c-1,0-1.5-0.5-1.5-1.4V18.4c0-0.9,0.5-1.4,1.5-1.4c4.6,0,9.1,0,13.7,0
	c1.2,0,2.3,0.3,3.2,1.1c0.9,0.8,1.3,1.9,1.5,3C58.1,22,58.1,23,58.1,23.9z M117.4,16.8c-5.1,0-10.1,0-15.2,0c-1,0-1.5,0.5-1.5,1.5
	c0,0.3,0,0.6,0,0.9c0,0.8,0.6,1.3,1.4,1.3c4,0,8,0,12,0c0.2,0,0.4-0.1,0.5,0v4.6H114c-3.9,0-7.9,0-11.8,0c-1,0-1.5,0.5-1.5,1.5
	c0,0.3,0,0.5,0,0.8c0,0.9,0.5,1.4,1.5,1.4c4,0,7.9,0,11.9,0h0.6c0,1.2,0,2.2,0,3.3c0,0.6-0.3,0.9-1,1.1c-0.5,0.1-1,0.1-1.5,0.1
	c-3.3,0-6.6,0-9.9,0c-1,0-1.5,0.5-1.5,1.5c0,0.3,0,0.6,0,0.8c0,0.9,0.5,1.4,1.5,1.4c3.5,0,6.9,0,10.4,0c0.7,0,1.3,0,2-0.1
	c1.4-0.2,2.6-0.7,3.5-1.8c0.7-0.9,0.9-1.9,0.9-2.9c0-4.7,0-9.3,0-14C118.9,17.3,118.4,16.8,117.4,16.8z M32,16.9
	c-5.1,0-10.1,0-15.2,0c-0.1,0-0.3,0-0.4,0c-0.6,0.1-1.1,0.7-1.1,1.2c0,4.9,0,9.7,0,14.6c0,2,1.2,3.5,3.1,4.1
	c1.1,0.4,2.2,0.4,3.3,0.4c3.4,0,6.8,0,10.2,0c1,0,1.5-0.5,1.5-1.5c0-0.3,0-0.6,0-0.9c0-0.9-0.5-1.4-1.4-1.4c-3.3,0-6.6,0-10,0
	c-0.4,0-0.8,0-1.3-0.1c-0.8-0.1-1.2-0.4-1.3-1c-0.1-1.1,0-2.3-0.1-3.5h0.6c4,0,7.9,0,11.9,0c1,0,1.5-0.5,1.5-1.5c0-0.3,0-0.5,0-0.8
	c0-1-0.5-1.5-1.5-1.5c-3.9,0-7.9,0-11.8,0c-0.2,0-0.4,0-0.6-0.1v-4.5c0.2-0.1,0.4,0,0.5,0c4,0,8,0,11.9,0c1,0,1.5-0.5,1.5-1.4
	c0-0.3,0-0.5,0-0.8C33.6,17.4,33.1,16.9,32,16.9z M80.5,20.1c1.9,1.9,2.8,4.3,2.8,6.9c0,3.4-1.2,6.2-4,8.3c-2,1.5-4.2,2.1-6.7,2.1
	c-4.7,0-8.7-2.6-10.1-6.7c-1.5-4.4-0.1-9.6,4.3-12.3C71.1,15.9,77.1,16.6,80.5,20.1z M78,23.3c-1.4-2.1-3.4-2.9-6-2.8
	c-2.4,0.1-4.1,1.2-5.2,3.3c-0.7,1.4-0.9,2.9-0.7,4.4c0.4,3.3,3,5.5,6.4,5.5c2.3,0,4.2-0.9,5.4-2.6c0.7-1,1-2,1.2-3.2
	C79.2,26.3,79,24.7,78,23.3z M94,33.1c-0.7-0.1-1-0.4-1.2-1.1c-0.1-0.4-0.1-0.8-0.1-1.3c0-3,0-6.1,0-9.1c0-0.1,0-0.3,0.1-0.4h3.4
	c0.2-0.2,0.4-0.3,0.5-0.5v-3c-0.2-0.2-0.3-0.4-0.4-0.6h-3.5v-4.2c-0.2-0.2-0.3-0.4-0.5-0.5h-3.3c-0.2,0.2-0.3,0.3-0.5,0.4v4.3h-2.1
	c-0.3,0.2-0.5,0.3-0.6,0.4v3.1c0.2,0.2,0.3,0.3,0.5,0.5h2.2v0.6c0,3.1,0,6.3,0,9.4c0,0.8,0,1.6,0.2,2.4c0.3,1.9,1.5,3.1,3.4,3.5
	c1,0.2,2.1,0.3,3.1,0.2c0.6-0.1,1.2,0,1.8-0.3v-3.4c-0.2-0.1-0.3-0.3-0.5-0.4C95.6,33.2,94.8,33.3,94,33.1z M4.6,19v-1.5
	c-0.2-0.2-0.3-0.3-0.4-0.4H0.5c-0.2,0.2-0.3,0.3-0.5,0.4v19.2c0.2,0.2,0.3,0.3,0.4,0.5h3.8c0.2-0.2,0.4-0.3,0.5-0.4v-0.6
	c0-3.7,0-7.5,0-11.2c0-1.8,1.1-3.2,3-3.6c1-0.2,2-0.2,3-0.1c0.2-0.1,0.4-0.3,0.5-0.4V17C8.7,16.6,6.4,16.9,4.6,19z M154.5,33.1
	c-0.8,0.1-1.6,0.1-2.4,0c-0.8-0.1-1.1-0.4-1.2-1.1c-0.1-0.4-0.1-0.8-0.1-1.2c0-3,0-6.1,0-9.1v-0.4h3.5c0.2-0.2,0.4-0.3,0.5-0.4v-3.1
	c-0.2-0.2-0.3-0.3-0.6-0.5h-3.4v-4.3c-0.2-0.2-0.3-0.3-0.4-0.4H147c-0.2,0.2-0.4,0.3-0.5,0.5v4.2h-2.3c-0.1,0.1-0.2,0.3-0.4,0.4v3.2
	c0.1,0.1,0.2,0.2,0.4,0.4h2.2v0.5c0,3.1,0,6.3,0,9.4c0,0.8,0,1.6,0.2,2.4c0.3,1.9,1.5,3.1,3.4,3.5c1,0.2,2.1,0.3,3.1,0.2
	c0.6-0.1,1.2,0,1.8-0.3v-3.4C154.8,33.4,154.7,33.3,154.5,33.1z M135.9,17.1c-0.2,0.1-0.4,0.3-0.5,0.5v19c0.2,0.2,0.3,0.3,0.4,0.5
	h3.4c0.1-0.1,0.1-0.1,0.2-0.2c0.1-0.1,0.2-0.2,0.3-0.2V17.5c-0.1-0.1-0.3-0.3-0.4-0.4H135.9z M127.3,30.9c-1.3-0.1-2.5,0.6-3,1.8
	c-0.4,0.9-0.4,1.9,0,2.8c0.7,1.6,2.5,2.3,4.1,1.5c1.2-0.6,1.7-1.6,1.7-2.9c0-0.3,0-0.6-0.1-0.9C129.6,31.9,128.6,31,127.3,30.9z
	 M137.6,8.9c-1.6,0-2.8,1.2-2.8,2.8c0,1.7,1.2,2.9,2.8,2.9c1.7,0,2.8-1.2,2.8-2.9C140.4,10.2,139.2,8.9,137.6,8.9z M82.8,2.9
	c-3.1-2-6.6-2.8-10-2.9c-2.5,0-4.6,0.3-6.7,1c-2.1,0.7-3.9,1.8-5.6,3.1c-0.7,0.5-0.6,1.3,0.1,1.7c0.7,0.5,1.6,0.5,2.3,0
	c0.3-0.2,0.5-0.4,0.8-0.6C67.1,2.7,71,2,75.2,2.7c2.4,0.4,4.5,1.3,6.4,2.8C82.3,6,83.3,6.1,84,5.6c0.7-0.4,0.7-1.3,0.1-1.7
	C83.7,3.5,83.2,3.2,82.8,2.9z M79.8,8.9c0.8-0.5,0.8-1.4,0.1-1.9c-2.1-1.7-4.6-2.6-7.4-2.6c-0.4,0-0.9,0-1.4,0.1
	c-2.4,0.2-4.5,1.3-6.3,2.8c-0.6,0.5-0.5,1.2,0,1.7c0.6,0.5,1.2,0.5,1.9,0.4c0.6-0.1,1-0.5,1.4-0.8c1.6-1.2,3.4-1.6,5.4-1.4
	c1.4,0.2,2.6,0.8,3.6,1.6C78,9.4,79,9.4,79.8,8.9z M69.3,12.4c0,1.7,1.4,3.1,3.1,3.1c1.8,0,3.2-1.4,3.2-3.1c0-1.7-1.4-3.1-3.2-3.1
	C70.8,9.3,69.3,10.7,69.3,12.4z M153.9,31.7l0.2,0.3h-0.3l-0.1-0.2c-0.1-0.2-0.2-0.3-0.3-0.4c0,0-0.1,0-0.2,0H153V32h-0.2v-1.5h0.5
	c0.2,0,0.3,0,0.4,0c0.1,0,0.1,0.1,0.2,0.1c0,0.1,0.1,0.1,0.1,0.2c0,0.1,0,0.2-0.1,0.3c-0.1,0.1-0.2,0.1-0.3,0.1c0.1,0,0.1,0,0.1,0.1
	C153.7,31.5,153.8,31.6,153.9,31.7z M153.6,31.1c0.1,0,0.1-0.1,0.1-0.2c0,0,0-0.1,0-0.1c0,0-0.1-0.1-0.1-0.1c0,0-0.1,0-0.2,0H153
	v0.5h0.3C153.5,31.2,153.6,31.1,153.6,31.1z M154.7,30.5c0.1,0.2,0.2,0.5,0.2,0.7c0,0.2-0.1,0.5-0.2,0.7c-0.1,0.2-0.3,0.4-0.5,0.5
	c-0.2,0.1-0.5,0.2-0.7,0.2c-0.2,0-0.5-0.1-0.7-0.2c-0.2-0.1-0.4-0.3-0.5-0.5c-0.1-0.2-0.2-0.5-0.2-0.7c0-0.2,0.1-0.5,0.2-0.7
	c0.1-0.2,0.3-0.4,0.5-0.5c0.2-0.1,0.5-0.2,0.7-0.2c0.2,0,0.5,0.1,0.7,0.2C154.4,30.1,154.5,30.3,154.7,30.5z M154.6,31.2
	c0-0.2-0.1-0.4-0.2-0.6c-0.1-0.2-0.3-0.3-0.4-0.4c-0.2-0.1-0.4-0.2-0.6-0.2c-0.2,0-0.4,0-0.6,0.2c-0.2,0.1-0.3,0.2-0.4,0.4
	c-0.1,0.2-0.2,0.4-0.2,0.6c0,0.2,0.1,0.4,0.2,0.6c0.1,0.2,0.3,0.3,0.4,0.4s0.4,0.2,0.6,0.2c0.2,0,0.4-0.1,0.6-0.2s0.3-0.2,0.4-0.4
	C154.6,31.6,154.6,31.4,154.6,31.2z"/>
</svg>
