<?xml version="1.0" encoding="UTF-8"?>
<svg width="263px" height="149px" viewBox="0 0 263 149" version="1.1" xmlns="http://www.w3.org/2000/svg" xmlns:xlink="http://www.w3.org/1999/xlink">
    <!-- Generator: Sketch 59.1 (86144) - https://sketch.com -->
    <title>Android</title>
    <desc>Created with Sketch.</desc>
    <g id="Page-1" stroke="none" stroke-width="1" fill="none" fill-rule="evenodd">
        <g id="Android" fill-rule="nonzero">
            <path d="M195.82919,44.95461 L217.66745,7.13284 C218.9194,4.95892 218.17459,2.18215 216.00421,0.92674 C213.83386,-0.32512 211.05353,0.41961 209.79812,2.58997 L187.6867,40.89049 C170.7777,33.17365 151.7871,28.87549 131.5231,28.87549 C111.25932,28.87549 92.26872,33.17365 75.35972,40.89049 L53.24832,2.58997 C51.99289,0.41961 49.21257,-0.32512 47.0422,0.92674 C44.87184,2.18215 44.12358,4.95892 45.37899,7.13284 L67.21723,44.95461 C29.71827,65.34964 4.07112,103.31327 0.31914,148.1639 L262.72725,148.1639 C258.97183,103.31326 233.32468,65.34964 195.82919,44.95461" id="Path" fill="#3DDB85"></path>
            <path d="M191.91034,110.77477 C185.88519,110.77477 180.98407,105.87018 180.98407,99.84495 C180.98407,93.81972 185.88519,88.91867 191.91034,88.91867 C197.9357,88.91867 202.83661,93.81972 202.83661,99.84495 C202.83661,105.87018 197.9357,110.77477 191.91034,110.77477" id="Path" fill="#FFFFFF"></path>
            <path d="M71.13611,110.77477 C65.11073,110.77477 60.20984,105.87018 60.20984,99.84495 C60.20984,93.81972 65.11073,88.91867 71.13611,88.91867 C77.16126,88.91867 82.06236,93.81972 82.06236,99.84495 C82.06236,105.87018 77.16125,110.77477 71.13611,110.77477" id="Path" fill="#FFFFFF"></path>
        </g>
    </g>
</svg>