<?xml version="1.0" encoding="UTF-8"?>
<svg width="407px" height="513px" viewBox="0 0 407 513" version="1.1" xmlns="http://www.w3.org/2000/svg" xmlns:xlink="http://www.w3.org/1999/xlink">
    <!-- Generator: Sketch 59 (86127) - https://sketch.com -->
    <title>Shape</title>
    <desc>Created with Sketch.</desc>
    <g id="Page-1" stroke="none" stroke-width="1" fill="none" fill-rule="evenodd">
        <path d="M372,233.5 L368.3,227 C368.4,180.6 346.9,161.7 321.8,147.3 C329.4,145.3 337.2,143.7 339.4,134.1 C352.5,130.8 355.2,124.7 356.5,118.3 C359.9,116 371.3,109.6 370.1,98.6 C376.5,94.2 380.1,88.5 378.2,80.5 C385.1,73 386.9,66.8 384,61.1 C392.3,50.8 388.6,45.5 385.1,40.2 C391.3,29 385.8,17 368.5,19 C361.6,8.9 346.6,11.2 344.3,11.2 C341.7,8 338.3,5.2 327.8,6.5 C321,0.4 313.4,1.5 305.5,4.4 C296.2,-2.9 290,3 282.9,5.2 C271.6,1.6 269,6.5 263.5,8.6 C251.2,6 247.4,11.6 241.5,17.5 L234.6,17.4 C216,28.2 206.8,50.2 203.5,61.5 C200.2,50.2 191,28.2 172.4,17.4 L165.5,17.5 C159.6,11.6 155.8,6 143.5,8.6 C137.9,6.6 135.4,1.6 124.1,5.2 C119.5,3.8 115.2,0.8 110.2,0.9 C107.6,1 104.7,1.9 101.5,4.4 C93.6,1.4 86,0.4 79.2,6.5 C68.7,5.2 65.2,7.9 62.7,11.2 C60.4,11.2 45.4,8.9 38.5,19 C21.2,17 15.8,29 22,40.2 C18.5,45.6 14.8,50.9 23.1,61.1 C20.2,66.8 22,73 28.9,80.5 C27.1,88.5 30.7,94.2 37,98.6 C35.8,109.6 47.2,116 50.6,118.3 C51.9,124.7 54.6,130.7 67.7,134.1 C69.9,143.6 77.7,145.3 85.3,147.3 C60.2,161.7 38.7,180.6 38.8,227 L35.1,233.5 C6.3,250.7 -19.6,306.2 20.9,351.2 C23.5,365.3 28,375.4 31.9,386.6 C37.8,431.8 76.4,452.9 86.5,455.4 C101.4,466.6 117.3,477.2 138.7,484.6 C159,505.2 181,513 203,513 L204,513 C226.1,513 248,505.2 268.2,484.6 C289.7,477.2 305.5,466.6 320.4,455.4 C330.6,452.9 369.1,431.8 375,386.6 C378.9,375.4 383.4,365.3 386,351.2 C426.6,306.1 400.7,250.7 372,233.5 Z M349.8,225.5 C348.3,244.2 250.9,160.4 267.7,157.6 C313.4,150.1 351.3,176.8 349.8,225.5 L349.8,225.5 Z M306.8,318.6 C282.3,334.4 247,324.2 228,295.8 C209,267.4 213.4,231.6 237.9,215.8 C262.4,200 297.7,210.2 316.7,238.6 C335.7,267 331.3,302.8 306.8,318.6 Z M238.9,30.3 C239.7,34.5 240.7,37.1 241.8,37.9 C247.2,32.1 251.6,26.2 258.6,20.6 C258.6,23.9 256.9,27.4 261.1,30 C264.8,25 269.9,20.5 276.6,16.7 C273.4,22.3 276,24 277.8,26.3 C282.9,21.9 287.8,17.5 297.2,14 C294.6,17.1 291,20.2 294.8,23.8 C300.1,20.5 305.4,17.2 317.9,14.9 C315.1,18 309.2,21.2 312.8,24.3 C319.4,21.8 326.8,19.9 334.9,18.9 C331,22.1 327.8,25.2 331,27.7 C338.1,25.5 347.9,22.6 357.4,25.1 L351.4,31.2 C350.7,32 365.5,31.8 375.3,32 C371.7,37 368.1,41.7 366,50.2 C367,51.2 371.8,50.6 376.4,50.2 C371.7,60.1 363.6,62.5 361.7,66.8 C364.6,69 368.5,68.4 372.9,66.9 C369.5,73.8 362.5,78.6 356.9,84.2 C358.3,85.2 360.8,85.8 366.6,85.1 C361.4,90.6 355.2,95.6 347.8,100.1 C349.1,101.6 353.6,101.6 357.8,101.7 C351.1,108.2 342.5,111.6 334.4,115.9 C338.4,118.6 341.3,118 344.4,118 C338.7,122.7 329,125.1 320,128 C321.7,130.7 323.4,131.4 327.1,132.1 C317.6,137.4 303.9,135 300.1,137.7 C301,140.4 303.7,142.1 306.8,143.5 C291.4,144.4 249.5,142.9 241.4,111.2 C257.1,93.9 285.8,73.7 335.1,48.6 C296.7,61.4 262.1,78.6 233.1,102.1 C198.8,86.2 222.3,46.2 238.9,30.3 Z M204.5,144.9 C228.7,144.6 258.6,162.7 258.50025,179.6 C258.4,194.6 237.5,206.7 204.7,206.5 C172.6,206.1 151,191.3 151.099654,176.7 C151.099654,164.8 177.3,144.2 204.5,144.9 Z M81.5,132.1 C85.2,131.4 86.9,130.6 88.6,128 C79.6,125.2 69.9,122.7 64.2,118 C67.3,118 70.2,118.7 74.2,115.9 C66.1,111.6 57.5,108.2 50.8,101.7 C55,101.6 59.5,101.7 60.8,100.1 C53.4,95.6 47.2,90.6 42,85.1 C47.8,85.8 50.3,85.2 51.7,84.2 C46.1,78.6 39,73.8 35.7,66.9 C40,68.4 44,68.9 46.9,66.8 C45,62.6 36.9,60.1 32.2,50.2 C36.8,50.6 41.6,51.2 42.6,50.2 C40.5,41.7 36.8,36.9 33.3,32 C43.1,31.9 57.9,32 57.2,31.2 L51.2,25.1 C60.7,22.6 70.5,25.5 77.6,27.7 C80.8,25.2 77.5,22.1 73.7,18.9 C81.8,20 89.1,21.8 95.8,24.3 C99.3,21.2 93.5,18 90.7,14.9 C103.2,17.2 108.5,20.5 113.8,23.8 C117.6,20.2 114,17.1 111.4,14 C120.8,17.4 125.7,21.9 130.8,26.3 C132.5,24 135.2,22.3 132,16.7 C138.7,20.5 143.8,25 147.5,30 C151.6,27.4 150,23.8 150,20.6 C157,26.2 161.4,32.1 166.8,37.9 C167.9,37.1 168.8,34.5 169.7,30.3 C186.3,46.2 209.8,86.2 175.7,102.1 C146.7,78.6 112.1,61.4 73.7,48.6 C123,73.6 151.7,93.9 167.4,111.2 C159.4,143 117.4,144.4 102,143.5 C105.1,142.1 107.8,140.3 108.7,137.7 C104.7,134.9 91.1,137.3 81.5,132.1 L81.5,132.1 Z M141.6,156.2 C158.4,159 61,242.7 59.5,224.1 C58,175.4 96,148.6 141.6,156.2 Z M38.2,343 C14.5,324.2 6.9,269.3 50.8,244.7 C77.3,237.7 59.8,352.5 38.2,343 Z M129.2,441.2 C115.9,449.1 83.4,445.9 60.4,413.3 C44.9,385.9 46.9,358.1 57.8,349.9 C74.1,340.1 99.3,353.3 118.7,375.5 C135.6,395.5 143.3,430.8 129.2,441.2 L129.2,441.2 Z M102.8,321.5 C78.3,305.7 73.9,269.9 92.9,241.5 C111.9,213.1 147.2,202.9 171.7,218.7 C196.2,234.5 200.6,270.3 181.6,298.7 C162.5,327.1 127.2,337.3 102.8,321.5 Z M205,497 C175.6,498.2 146.8,473.3 147.2,464.7 C146.8,452 183,442.1 206.5,442.7 C230.2,441.7 262.1,450.2 262.2,461.6 C262.7,472.6 233.4,497.5 205,497 L205,497 Z M263.901129,372.1 C264.1,401.8 237.7,425.9 205.1,426.1 C172.5,426.3 145.9,402.3 145.698871,372.7 L145.698871,372.1 C145.5,342.4 171.9,318.3 204.5,318.1 C237.1,317.9 263.7,341.9 263.901129,371.5 L263.901129,372.1 L263.901129,372.1 Z M346.1,414.8 C320.8,449.4 286.5,450.7 273.8,441.1 C260.5,428.7 270.6,390.2 288.9,369.1 C309.8,345.8 332.2,330.6 347.8,342.5 C358.3,352.8 364.5,391.6 346.1,414.8 Z M369,341.6 C347.5,351 330,236.3 356.4,243.3 C400.3,268 392.7,322.9 369,341.6 Z" id="Shape" fill="#FFFFFF" fill-rule="nonzero"></path>
    </g>
</svg>