<svg width="57" height="56" viewBox="0 0 57 56" fill="none" xmlns="http://www.w3.org/2000/svg">
<path d="M10.013 0.568604H46.8719C51.9618 0.568604 56.0875 4.69415 56.0875 9.78383V46.6415C56.0875 51.7312 51.9618 55.8567 46.8719 55.8567H10.013C4.92317 55.8567 0.797485 51.7312 0.797485 46.6415V9.78383C0.797485 4.69415 4.92317 0.568604 10.013 0.568604Z" fill="#F05323"/>
<g filter="url(#filter0_d_1073_936)">
<path d="M14.5921 33.8746C14.1319 34.9732 14.0249 36.1059 14.1708 37.1867C14.3199 38.3145 14.7477 39.3839 15.3343 40.3043C15.916 41.2182 16.6566 41.9879 17.4409 42.5194C18.2803 43.0898 19.178 43.3944 19.9979 43.3264C20.766 44.6227 21.7464 45.4086 22.7689 45.7667C23.6375 46.0697 24.5336 46.0632 25.3519 45.8007C26.1751 45.5366 26.9238 45.0116 27.4926 44.2775C28.1537 43.4268 28.5734 42.299 28.5864 40.9784L28.8667 15.2027C28.8797 14.0246 28.6334 13.0054 28.2201 12.2163C27.862 11.5341 27.3775 11.0236 26.8233 10.7271C26.2626 10.4257 25.6323 10.3463 24.9922 10.5343C24.451 10.6931 23.9065 11.0415 23.3944 11.6086C23.0201 11.4628 22.615 11.4174 22.2131 11.4628C21.6767 11.526 21.1404 11.7496 20.6785 12.1126C20.2118 12.4788 19.8165 12.9843 19.5701 13.6082C19.4065 14.023 19.3076 14.4881 19.2979 14.9936C18.7016 15.1233 18.1717 15.4554 17.7439 15.9059C17.3809 16.2883 17.0908 16.7631 16.8964 17.2735C16.6987 17.7904 16.6015 18.3446 16.6241 18.8842C16.642 19.2682 16.7198 19.6458 16.8672 19.9958C16.5415 20.1141 16.2401 20.2761 15.9695 20.4738C15.3877 20.9 14.9405 21.4898 14.6634 22.1639C14.3847 22.8445 14.2777 23.6077 14.375 24.3709C14.4236 24.7517 14.524 25.1309 14.678 25.5019C14.5402 25.6543 14.409 25.8179 14.2874 25.9913C13.5939 26.97 13.1791 28.2372 13.1272 29.54C13.0753 30.8476 13.3881 32.191 14.1546 33.3139C14.2875 33.5067 14.4333 33.6931 14.5937 33.8746H14.5921Z" fill="#143156"/>
<path d="M14.5921 33.8746C14.1319 34.9732 14.0249 36.1059 14.1708 37.1867C14.3199 38.3145 14.7477 39.3839 15.3343 40.3043C15.916 41.2182 16.6566 41.9879 17.4409 42.5194C18.2803 43.0898 19.178 43.3944 19.9979 43.3264C20.766 44.6227 21.7464 45.4086 22.7689 45.7667C23.6375 46.0697 24.5336 46.0632 25.3519 45.8007C26.1751 45.5366 26.9238 45.0116 27.4926 44.2775C28.1537 43.4268 28.5734 42.299 28.5864 40.9784L28.8667 15.2027C28.8797 14.0246 28.6334 13.0054 28.2201 12.2163C27.862 11.5341 27.3775 11.0236 26.8233 10.7271C26.2626 10.4257 25.6323 10.3463 24.9922 10.5343C24.451 10.6931 23.9065 11.0415 23.3944 11.6086C23.0201 11.4628 22.615 11.4174 22.2131 11.4628C21.6767 11.526 21.1404 11.7496 20.6785 12.1126C20.2118 12.4788 19.8165 12.9843 19.5701 13.6082C19.4065 14.023 19.3076 14.4881 19.2979 14.9936C18.7016 15.1233 18.1717 15.4554 17.7439 15.9059C17.3809 16.2883 17.0908 16.7631 16.8964 17.2735C16.6987 17.7904 16.6015 18.3446 16.6241 18.8842C16.642 19.2682 16.7198 19.6458 16.8672 19.9958C16.5415 20.1141 16.2401 20.2761 15.9695 20.4738C15.3877 20.9 14.9405 21.4898 14.6634 22.1639C14.3847 22.8445 14.2777 23.6077 14.375 24.3709C14.4236 24.7517 14.524 25.1309 14.678 25.5019C14.5402 25.6543 14.409 25.8179 14.2874 25.9913C13.5939 26.97 13.1791 28.2372 13.1272 29.54C13.0753 30.8476 13.3881 32.191 14.1546 33.3139C14.2875 33.5067 14.4333 33.6931 14.5937 33.8746H14.5921Z" stroke="#143156" stroke-width="0.16204" stroke-miterlimit="10"/>
</g>
<path d="M17.4962 20.7719L20.3968 25.7595L23.5454 19.4901L17.4962 20.7719ZM24.3183 18.3024L27.2935 14.8833L27.2967 14.8785L27.6921 14.4345L28.1053 14.9482L27.71 15.3905L24.3734 19.2244L21.28 25.3835L27.6889 21.8316L27.9433 22.4733L20.8603 26.3979L23.9229 29.4702L27.8201 30.4489L27.7569 30.7957L27.9498 31.0663L22.6395 36.3148L27.7877 39.0435L27.5398 39.6885L22.2215 36.869L19.9301 43.1739L19.3759 42.8969L21.6721 36.5773L21.6219 36.3942L18.2157 33.9701L17.8349 33.8339L14.594 34.3314L14.5162 33.6282L17.54 33.1647L14.3768 25.9815L14.6442 25.8194L14.6653 25.4662L19.7422 25.8875L16.7346 20.7152L16.9825 20.5142L16.9307 20.1659L23.2731 18.8225L19.0211 15.9285L19.3225 15.3144L23.7026 18.2943L22.6557 12.4463L23.244 12.3004L24.3183 18.2959V18.3024ZM22.1113 35.9194L27.0942 30.995L23.8338 30.1767L18.7148 33.5018L22.1113 35.9178V35.9194ZM20.0209 26.6264L15.1595 26.2229L18.0034 32.6818L20.0209 26.6264ZM18.6257 32.7515L23.2602 29.7392L20.5394 27.0104L18.6257 32.7515Z" fill="white" stroke="white" stroke-width="0.16204" stroke-miterlimit="10"/>
<g filter="url(#filter1_d_1073_936)">
<path d="M44.2321 32.907C44.9856 31.8051 45.2935 30.4861 45.2433 29.1995C45.1931 27.921 44.7831 26.6749 44.1041 25.714C43.9826 25.5439 43.8546 25.3835 43.7201 25.2328C43.8708 24.8698 43.968 24.4955 44.0182 24.1228C44.1138 23.3709 44.0069 22.6223 43.733 21.9547C43.4608 21.292 43.0233 20.7119 42.4512 20.2938C42.1839 20.0977 41.8889 19.9389 41.5697 19.8223C41.7123 19.4787 41.7901 19.1093 41.8063 18.7317C41.8306 18.2019 41.7334 17.6558 41.5405 17.1486C41.3493 16.6479 41.0625 16.1828 40.706 15.8053C40.2879 15.3629 39.7645 15.0372 39.1812 14.9092C39.1698 14.4134 39.0742 13.958 38.9122 13.5497C38.6707 12.9372 38.2834 12.4381 37.8248 12.0784C37.3695 11.7235 36.8428 11.5015 36.3178 11.4415C35.9208 11.3962 35.5238 11.4415 35.1559 11.5841C34.6536 11.0267 34.1189 10.6832 33.5857 10.5293C32.957 10.3445 32.3396 10.4223 31.787 10.7172C31.2425 11.0105 30.7677 11.5112 30.4161 12.1821C30.011 12.955 29.7679 13.9564 29.7809 15.1134L30.0547 40.4322C30.0693 41.7317 30.4793 42.8385 31.1291 43.6746C31.6882 44.394 32.4239 44.9093 33.2325 45.1686C34.0378 45.4279 34.9177 45.4343 35.7717 45.1346C36.7748 44.7846 37.739 44.0133 38.4925 42.738C39.2995 42.8061 40.181 42.5079 41.0058 41.9472C41.7739 41.4238 42.5031 40.6671 43.0751 39.771C43.6504 38.8669 44.0701 37.8152 44.2175 36.7085C44.3601 35.6455 44.2548 34.5339 43.8027 33.4531C43.9615 33.2765 44.1057 33.0917 44.2337 32.9022L44.2321 32.907Z" fill="white"/>
<path d="M44.2321 32.907C44.9856 31.8051 45.2935 30.4861 45.2433 29.1995C45.1931 27.921 44.7831 26.6749 44.1041 25.714C43.9826 25.5439 43.8546 25.3835 43.7201 25.2328C43.8708 24.8698 43.968 24.4955 44.0182 24.1228C44.1138 23.3709 44.0069 22.6223 43.733 21.9547C43.4608 21.292 43.0233 20.7119 42.4512 20.2938C42.1839 20.0977 41.8889 19.9389 41.5697 19.8223C41.7123 19.4787 41.7901 19.1093 41.8063 18.7317C41.8306 18.2019 41.7334 17.6558 41.5405 17.1486C41.3493 16.6479 41.0625 16.1828 40.706 15.8053C40.2879 15.3629 39.7645 15.0372 39.1812 14.9092C39.1698 14.4134 39.0742 13.958 38.9122 13.5497C38.6707 12.9372 38.2834 12.4381 37.8248 12.0784C37.3695 11.7235 36.8428 11.5015 36.3178 11.4415C35.9208 11.3962 35.5238 11.4415 35.1559 11.5841C34.6536 11.0267 34.1189 10.6832 33.5857 10.5293C32.957 10.3445 32.3396 10.4223 31.787 10.7172C31.2425 11.0105 30.7677 11.5112 30.4161 12.1821C30.011 12.955 29.7679 13.9564 29.7809 15.1134L30.0547 40.4322C30.0693 41.7317 30.4793 42.8385 31.1291 43.6746C31.6882 44.394 32.4239 44.9093 33.2325 45.1686C34.0378 45.4279 34.9177 45.4343 35.7717 45.1346C36.7748 44.7846 37.739 44.0133 38.4925 42.738C39.2995 42.8061 40.181 42.5079 41.0058 41.9472C41.7739 41.4238 42.5031 40.6671 43.0751 39.771C43.6504 38.8669 44.0701 37.8152 44.2175 36.7085C44.3601 35.6455 44.2548 34.5339 43.8027 33.4531C43.9615 33.2765 44.1057 33.0917 44.2337 32.9022L44.2321 32.907Z" stroke="white" stroke-width="0.16204" stroke-miterlimit="10"/>
</g>
<defs>
<filter id="filter0_d_1073_936" x="10.1293" y="8.60523" width="20.5658" height="40.3831" filterUnits="userSpaceOnUse" color-interpolation-filters="sRGB">
<feFlood flood-opacity="0" result="BackgroundImageFix"/>
<feColorMatrix in="SourceAlpha" type="matrix" values="0 0 0 0 0 0 0 0 0 0 0 0 0 0 0 0 0 0 127 0" result="hardAlpha"/>
<feOffset dx="-0.582275" dy="0.582275"/>
<feGaussianBlur stdDeviation="1.16455"/>
<feComposite in2="hardAlpha" operator="out"/>
<feColorMatrix type="matrix" values="0 0 0 0 0.0784314 0 0 0 0 0.192157 0 0 0 0 0.337255 0 0 0 1 0"/>
<feBlend mode="multiply" in2="BackgroundImageFix" result="effect1_dropShadow_1073_936"/>
<feBlend mode="normal" in="SourceGraphic" in2="effect1_dropShadow_1073_936" result="shape"/>
</filter>
<filter id="filter1_d_1073_936" x="26.788" y="8.60181" width="20.2884" height="39.7519" filterUnits="userSpaceOnUse" color-interpolation-filters="sRGB">
<feFlood flood-opacity="0" result="BackgroundImageFix"/>
<feColorMatrix in="SourceAlpha" type="matrix" values="0 0 0 0 0 0 0 0 0 0 0 0 0 0 0 0 0 0 127 0" result="hardAlpha"/>
<feOffset dx="-0.582275" dy="0.582275"/>
<feGaussianBlur stdDeviation="1.16455"/>
<feComposite in2="hardAlpha" operator="out"/>
<feColorMatrix type="matrix" values="0 0 0 0 0.0784314 0 0 0 0 0.192157 0 0 0 0 0.337255 0 0 0 1 0"/>
<feBlend mode="multiply" in2="BackgroundImageFix" result="effect1_dropShadow_1073_936"/>
<feBlend mode="normal" in="SourceGraphic" in2="effect1_dropShadow_1073_936" result="shape"/>
</filter>
</defs>
</svg>
